<?xml version="1.0" encoding="utf-8"?>
<!-- Generator: Adobe Illustrator 16.0.3, SVG Export Plug-In . SVG Version: 6.00 Build 0)  -->
<!DOCTYPE svg PUBLIC "-//W3C//DTD SVG 1.1//EN" "http://www.w3.org/Graphics/SVG/1.1/DTD/svg11.dtd">
<svg version="1.1" xmlns="http://www.w3.org/2000/svg" xmlns:xlink="http://www.w3.org/1999/xlink" x="0px" y="0px" width="2592px"
	 height="2592px" viewBox="0 0 2592 2592" enable-background="new 0 0 2592 2592" xml:space="preserve">
<g id="Layer_1">
	<path fill="#EC008C" d="M20.409,845.061v1352.879h2551.183V845.061H20.409z M119.465,1131.506c7.828,0,14.174,6.346,14.174,14.173
		c0,7.829-6.346,14.174-14.174,14.174c-7.827,0-14.173-6.345-14.173-14.174C105.292,1137.852,111.638,1131.506,119.465,1131.506z
		 M119.622,2118.57c-7.828,0-14.173-6.347-14.173-14.174c0-7.828,6.345-14.175,14.173-14.175s14.173,6.347,14.173,14.175
		C133.795,2112.224,127.45,2118.57,119.622,2118.57z M454.186,1945.845c-41.579-3.339-90.997-25.912-96.394-71.451h74.847
		c1.836,6.604,6.605,11.374,12.474,14.309c2.831,1.42,5.932,2.447,9.073,3.173V1945.845z M454.186,1715.937
		c-19.603,4.909-30.729,21.666-30.729,41.061c0,19.991,11.126,36.083,30.729,40.77v57.982c-2.229,0.177-4.5,0.301-6.869,0.301
		c-55.032,0-92.827-41.828-92.827-96.129c0-55.028,38.894-101.988,96.492-101.988c1.078,0,2.136,0.093,3.204,0.14V1715.937z
		 M573.888,1834.038c0,74.53-34.507,107.545-95.31,111.702v-54.29c23.438-5.734,28.534-26.462,28.534-52.28v-8.803
		c-9.057,9.063-18.254,15.626-28.534,19.856v-52.456c19.602-4.687,30.728-20.778,30.728-40.77c0-19.39-11.126-36.152-30.728-41.061
		v-53.348c10.846,4.054,20.421,10.929,27.804,21.391h0.73v-19.81h66.775V1834.038z M747.264,1725.808
		c-9.166-5.138-17.974-6.237-28.249-6.237c-37.053,0-46.219,24.581-46.219,56.869v75.94h-66.775V1664.17h66.775v30.821h0.73
		c12.842-23.117,34.85-33.387,60.901-33.387h12.836V1725.808z M857.707,1717.404c-19.607,4.91-30.733,21.667-30.733,41.056
		c0,20.001,11.126,36.094,30.733,40.77v58.843c-54.98-4.541-101.173-39.784-101.173-99.612c0-59.849,45.912-95.424,101.173-99.982
		V1717.404z M882.1,1858.072v-58.843c19.597-4.687,30.723-20.769,30.723-40.77c0-19.39-11.126-36.146-30.723-41.056v-58.926
		c55.255,4.558,101.163,40.133,101.163,99.982C983.263,1817.966,937.354,1853.521,882.1,1858.072z M1090.518,1858.197
		c-50.439-2.717-87.969-23.227-87.969-80.659V1664.17h66.774v100.532c0,19.772,4.102,34.714,21.194,39.245V1858.197z
		 M1202.868,1777.538c0,57.433-37.524,77.942-87.964,80.659v-54.25c17.088-4.531,21.189-19.473,21.189-39.245V1664.17h66.774
		V1777.538z M1429.39,1852.38h-66.774v-91.722c0-17.975,2.934-49.527-30.08-49.527c-27.15,0-34.854,20.184-34.854,43.663v97.586
		h-66.771V1664.17h66.771v24.217h0.73c15.413-22.749,34.124-30.453,60.17-30.453c50.631,0,70.809,31.92,70.809,78.145V1852.38z
		 M1552.437,1717.404c-19.598,4.915-30.723,21.671-30.723,41.056c0,20.001,11.125,36.083,30.723,40.77v59.133
		c-1.566,0.094-3.121,0.25-4.677,0.25c-55.764,0-95.02-46.588-95.02-100.525c0-53.924,38.521-100.153,94.283-100.153
		c1.794,0,3.608,0.088,5.413,0.212V1717.404z M1672.133,1852.38h-66.774v-20.914h-0.726c-6.491,10.338-16.477,17.514-27.81,21.879
		v-54.115c19.607-4.676,30.733-20.769,30.733-40.77c0-19.39-11.126-36.152-30.733-41.061v-54.156
		c11.022,4.044,21.06,10.416,28.535,19.271V1547.87h66.774V1852.38z M1789.643,1702.981c-13.324,3.645-23.537,13.091-26.616,27.959
		h26.616v38.531h-27.716c0,21.992,9.519,35.668,27.716,40.116v48.215c-54.934-5.122-94.49-39.567-94.49-99.343
		c0-59.331,38.499-96.145,94.49-99.987V1702.981z M1864.287,1842.841c-14.599,9.011-32.102,13.987-50.257,15.325V1810.2
		c9.114-1.971,16.206-6.916,21.64-16.154h64.203C1894.74,1816.059,1881.531,1832.202,1864.287,1842.841z M1902.444,1769.472h-88.414
		v-38.531h26.409c-2.582-14.06-13.282-24.201-26.409-27.985v-44.187c56.209,5.708,88.414,44.529,88.414,103.725V1769.472z
		 M2026.414,1717.404c-19.598,4.915-30.723,21.671-30.723,41.056c0,20.001,11.125,36.083,30.723,40.77v59.133
		c-1.566,0.094-3.121,0.25-4.677,0.25c-55.764,0-95.02-46.588-95.02-100.525c0-53.924,38.521-100.153,94.283-100.153
		c1.805,0,3.608,0.088,5.413,0.212V1717.404z M2146.111,1852.38h-66.765v-20.914h-0.736c-6.491,10.338-16.477,17.514-27.81,21.889
		v-54.125c19.618-4.676,30.733-20.769,30.733-40.77c0-19.39-11.115-36.152-30.733-41.061v-54.156
		c11.022,4.044,21.06,10.416,28.546,19.271V1547.87h66.765V1852.38z M2221.948,1863.454c-24.294,0-43.726-19.805-43.726-43.715
		c0-24.294,19.432-43.725,43.726-43.725c24.283,0,43.715,19.431,43.715,43.725
		C2265.663,1843.649,2246.231,1863.454,2221.948,1863.454z M2472.378,2118.57c-7.827,0-14.173-6.347-14.173-14.174
		c0-7.828,6.346-14.175,14.173-14.175s14.173,6.347,14.173,14.175C2486.551,2112.224,2480.205,2118.57,2472.378,2118.57z
		 M2472.465,1159.853c-7.827,0-14.173-6.345-14.173-14.174c0-7.827,6.346-14.173,14.173-14.173c7.828,0,14.174,6.346,14.174,14.173
		C2486.639,1153.508,2480.293,1159.853,2472.465,1159.853z"/>
</g>
<g id="Layer_2">
</g>
</svg>
