  0
SECTION
  2
HEADER
  9
$ACADVER
  1
AC1018
  9
$ACADMAINTVER
 70
     0
  9
$DWGCODEPAGE
  3
ANSI_1252
  9
$INSBASE
 10
0.0
 20
0.0
 30
0.0
  9
$EXTMIN
 10
1.000000000000000E+20
 20
1.000000000000000E+20
 30
1.000000000000000E+20
  9
$EXTMAX
 10
-1.000000000000000E+20
 20
-1.000000000000000E+20
 30
-1.000000000000000E+20
  9
$LIMMIN
 10
0.0
 20
0.0
  9
$LIMMAX
 10
12.0
 20
9.0
  9
$ORTHOMODE
 70
     0
  9
$REGENMODE
 70
     1
  9
$FILLMODE
 70
     1
  9
$QTEXTMODE
 70
     0
  9
$MIRRTEXT
 70
     1
  9
$LTSCALE
 40
1.0
  9
$ATTMODE
 70
     1
  9
$TEXTSIZE
 40
0.2
  9
$TRACEWID
 40
0.05
  9
$TEXTSTYLE
  7
Standard
  9
$CLAYER
  8
0
  9
$CELTYPE
  6
ByLayer
  9
$CECOLOR
 62
   256
  9
$CELTSCALE
 40
1.0
  9
$DISPSILH
 70
     0
  9
$DIMSCALE
 40
1.0
  9
$DIMASZ
 40
0.18
  9
$DIMEXO
 40
0.0625
  9
$DIMDLI
 40
0.38
  9
$DIMRND
 40
0.0
  9
$DIMDLE
 40
0.0
  9
$DIMEXE
 40
0.18
  9
$DIMTP
 40
0.0
  9
$DIMTM
 40
0.0
  9
$DIMTXT
 40
0.18
  9
$DIMCEN
 40
0.09
  9
$DIMTSZ
 40
0.0
  9
$DIMTOL
 70
     0
  9
$DIMLIM
 70
     0
  9
$DIMTIH
 70
     1
  9
$DIMTOH
 70
     1
  9
$DIMSE1
 70
     0
  9
$DIMSE2
 70
     0
  9
$DIMTAD
 70
     0
  9
$DIMZIN
 70
     0
  9
$DIMBLK
  1

  9
$DIMASO
 70
     1
  9
$DIMSHO
 70
     1
  9
$DIMPOST
  1

  9
$DIMAPOST
  1

  9
$DIMALT
 70
     0
  9
$DIMALTD
 70
     2
  9
$DIMALTF
 40
25.4
  9
$DIMLFAC
 40
1.0
  9
$DIMTOFL
 70
     0
  9
$DIMTVP
 40
0.0
  9
$DIMTIX
 70
     0
  9
$DIMSOXD
 70
     0
  9
$DIMSAH
 70
     0
  9
$DIMBLK1
  1

  9
$DIMBLK2
  1

  9
$DIMSTYLE
  2
Standard
  9
$DIMCLRD
 70
     0
  9
$DIMCLRE
 70
     0
  9
$DIMCLRT
 70
     0
  9
$DIMTFAC
 40
1.0
  9
$DIMGAP
 40
0.09
  9
$DIMJUST
 70
     0
  9
$DIMSD1
 70
     0
  9
$DIMSD2
 70
     0
  9
$DIMTOLJ
 70
     1
  9
$DIMTZIN
 70
     0
  9
$DIMALTZ
 70
     0
  9
$DIMALTTZ
 70
     0
  9
$DIMUPT
 70
     0
  9
$DIMDEC
 70
     4
  9
$DIMTDEC
 70
     4
  9
$DIMALTU
 70
     2
  9
$DIMALTTD
 70
     2
  9
$DIMTXSTY
  7
Standard
  9
$DIMAUNIT
 70
     0
  9
$DIMADEC
 70
     0
  9
$DIMALTRND
 40
0.0
  9
$DIMAZIN
 70
     0
  9
$DIMDSEP
 70
    46
  9
$DIMATFIT
 70
     3
  9
$DIMFRAC
 70
     0
  9
$DIMLDRBLK
  1

  9
$DIMLUNIT
 70
     2
  9
$DIMLWD
 70
    -2
  9
$DIMLWE
 70
    -2
  9
$DIMTMOVE
 70
     0
  9
$LUNITS
 70
     2
  9
$LUPREC
 70
     4
  9
$SKETCHINC
 40
0.1
  9
$FILLETRAD
 40
0.5
  9
$AUNITS
 70
     0
  9
$AUPREC
 70
     0
  9
$MENU
  1
.
  9
$ELEVATION
 40
0.0
  9
$PELEVATION
 40
0.0
  9
$THICKNESS
 40
0.0
  9
$LIMCHECK
 70
     0
  9
$CHAMFERA
 40
0.5
  9
$CHAMFERB
 40
0.5
  9
$CHAMFERC
 40
1.0
  9
$CHAMFERD
 40
0.0
  9
$SKPOLY
 70
     0
  9
$TDCREATE
 40
2457436.445287442
  9
$TDUCREATE
 40
2457436.778620775
  9
$TDUPDATE
 40
2457436.445287453
  9
$TDUUPDATE
 40
2457436.778620787
  9
$TDINDWG
 40
0.0000000116
  9
$TDUSRTIMER
 40
0.0000000116
  9
$USRTIMER
 70
     1
  9
$ANGBASE
 50
0.0
  9
$ANGDIR
 70
     0
  9
$PDMODE
 70
     0
  9
$PDSIZE
 40
0.0
  9
$PLINEWID
 40
0.0
  9
$SPLFRAME
 70
     0
  9
$SPLINETYPE
 70
     6
  9
$SPLINESEGS
 70
     8
  9
$HANDSEED
  5
64
  9
$SURFTAB1
 70
     6
  9
$SURFTAB2
 70
     6
  9
$SURFTYPE
 70
     6
  9
$SURFU
 70
     6
  9
$SURFV
 70
     6
  9
$UCSBASE
  2

  9
$UCSNAME
  2

  9
$UCSORG
 10
0.0
 20
0.0
 30
0.0
  9
$UCSXDIR
 10
1.0
 20
0.0
 30
0.0
  9
$UCSYDIR
 10
0.0
 20
1.0
 30
0.0
  9
$UCSORTHOREF
  2

  9
$UCSORTHOVIEW
 70
     0
  9
$UCSORGTOP
 10
0.0
 20
0.0
 30
0.0
  9
$UCSORGBOTTOM
 10
0.0
 20
0.0
 30
0.0
  9
$UCSORGLEFT
 10
0.0
 20
0.0
 30
0.0
  9
$UCSORGRIGHT
 10
0.0
 20
0.0
 30
0.0
  9
$UCSORGFRONT
 10
0.0
 20
0.0
 30
0.0
  9
$UCSORGBACK
 10
0.0
 20
0.0
 30
0.0
  9
$PUCSBASE
  2

  9
$PUCSNAME
  2

  9
$PUCSORG
 10
0.0
 20
0.0
 30
0.0
  9
$PUCSXDIR
 10
1.0
 20
0.0
 30
0.0
  9
$PUCSYDIR
 10
0.0
 20
1.0
 30
0.0
  9
$PUCSORTHOREF
  2

  9
$PUCSORTHOVIEW
 70
     0
  9
$PUCSORGTOP
 10
0.0
 20
0.0
 30
0.0
  9
$PUCSORGBOTTOM
 10
0.0
 20
0.0
 30
0.0
  9
$PUCSORGLEFT
 10
0.0
 20
0.0
 30
0.0
  9
$PUCSORGRIGHT
 10
0.0
 20
0.0
 30
0.0
  9
$PUCSORGFRONT
 10
0.0
 20
0.0
 30
0.0
  9
$PUCSORGBACK
 10
0.0
 20
0.0
 30
0.0
  9
$USERI1
 70
     0
  9
$USERI2
 70
     0
  9
$USERI3
 70
     0
  9
$USERI4
 70
     0
  9
$USERI5
 70
     0
  9
$USERR1
 40
0.0
  9
$USERR2
 40
0.0
  9
$USERR3
 40
0.0
  9
$USERR4
 40
0.0
  9
$USERR5
 40
0.0
  9
$WORLDVIEW
 70
     1
  9
$SHADEDGE
 70
     3
  9
$SHADEDIF
 70
    70
  9
$TILEMODE
 70
     1
  9
$MAXACTVP
 70
    64
  9
$PINSBASE
 10
0.0
 20
0.0
 30
0.0
  9
$PLIMCHECK
 70
     0
  9
$PEXTMIN
 10
1.000000000000000E+20
 20
1.000000000000000E+20
 30
1.000000000000000E+20
  9
$PEXTMAX
 10
-1.000000000000000E+20
 20
-1.000000000000000E+20
 30
-1.000000000000000E+20
  9
$PLIMMIN
 10
0.0
 20
0.0
  9
$PLIMMAX
 10
12.0
 20
9.0
  9
$UNITMODE
 70
     0
  9
$VISRETAIN
 70
     1
  9
$PLINEGEN
 70
     0
  9
$PSLTSCALE
 70
     1
  9
$TREEDEPTH
 70
  3020
  9
$CMLSTYLE
  2
Standard
  9
$CMLJUST
 70
     0
  9
$CMLSCALE
 40
1.0
  9
$PROXYGRAPHICS
 70
     1
  9
$MEASUREMENT
 70
     0
  9
$CELWEIGHT
370
    -1
  9
$ENDCAPS
280
     0
  9
$JOINSTYLE
280
     0
  9
$LWDISPLAY
290
     1
  9
$INSUNITS
 70
     1
  9
$HYPERLINKBASE
  1

  9
$STYLESHEET
  1

  9
$XEDIT
290
     1
  9
$CEPSNTYPE
380
     0
  9
$PSTYLEMODE
290
     1
  9
$FINGERPRINTGUID
  2
{7F19C2AF-32ED-481C-98F9-39EBE38AED2B}
  9
$VERSIONGUID
  2
{FAEB1C32-E019-11D5-929B-00C0DF256EC4}
  9
$EXTNAMES
290
     1
  9
$PSVPSCALE
 40
0.0
  9
$OLESTARTUP
290
     0
  9
$SORTENTS
280
   127
  9
$INDEXCTL
280
     0
  9
$HIDETEXT
280
     1
  9
$XCLIPFRAME
290
     0
  9
$HALOGAP
280
     0
  9
$OBSCOLOR
 70
   257
  9
$OBSLTYPE
280
     0
  9
$INTERSECTIONDISPLAY
280
     0
  9
$INTERSECTIONCOLOR
 70
   257
  9
$DIMASSOC
280
     2
  9
$PROJECTNAME
  1

  0
ENDSEC
  0
SECTION
  2
CLASSES
  0
CLASS
  1
ACDBDICTIONARYWDFLT
  2
AcDbDictionaryWithDefault
  3
ObjectDBX Classes
 90
        0
 91
        3
280
     0
281
     0
  0
CLASS
  1
VISUALSTYLE
  2
AcDbVisualStyle
  3
ObjectDBX Classes
 90
     4095
 91
        3
280
     0
281
     0
  0
ENDSEC
  0
SECTION
  2
TABLES
  0
TABLE
  2
VPORT
  5
8
330
0
100
AcDbSymbolTable
 70
     1
  0
VPORT
  5
29
330
8
100
AcDbSymbolTableRecord
100
AcDbViewportTableRecord
  2
*Active
 70
     0
 10
0.0
 20
0.0
 11
1.0
 21
1.0
 12
0.0
 22
0.0
 13
0.0
 23
0.0
 14
0.5
 24
0.5
 15
0.5
 25
0.5
 16
0.0
 26
0.0
 36
1.0
 17
46.2223465867517
 27
-31.19120550435497
 37
0.0
 40
17.35838921007012
 41
4.000001984686162
 42
50.0
 43
0.0
 44
0.0
 50
0.0
 51
0.0
 71
     0
 72
   100
 73
     1
 74
     3
 75
     0
 76
     0
 77
     0
 78
     0
281
     0
 65
     1
110
0.0
120
0.0
130
0.0
111
1.0
121
0.0
131
0.0
112
0.0
122
1.0
132
0.0
 79
     0
146
0.0
  0
ENDTAB
  0
TABLE
  2
LTYPE
  5
5
330
0
100
AcDbSymbolTable
 70
     1
  0
LTYPE
  5
14
330
5
100
AcDbSymbolTableRecord
100
AcDbLinetypeTableRecord
  2
ByBlock
 70
     0
  3

 72
    65
 73
     0
 40
0.0
  0
LTYPE
  5
15
330
5
100
AcDbSymbolTableRecord
100
AcDbLinetypeTableRecord
  2
ByLayer
 70
     0
  3

 72
    65
 73
     0
 40
0.0
  0
LTYPE
  5
16
330
5
100
AcDbSymbolTableRecord
100
AcDbLinetypeTableRecord
  2
Continuous
 70
     0
  3
Solid line
 72
    65
 73
     0
 40
0.0
  0
ENDTAB
  0
TABLE
  2
LAYER
  5
2
330
0
100
AcDbSymbolTable
 70
     3
  0
LAYER
  5
10
330
2
100
AcDbSymbolTableRecord
100
AcDbLayerTableRecord
  2
0
 70
     0
 62
     7
  6
Continuous
370
    -3
390
F
  0
LAYER
  5
3B
330
2
100
AcDbSymbolTableRecord
100
AcDbLayerTableRecord
  2
Layer 1
 70
     0
 62
     7
  6
Continuous
370
    -3
390
F
  0
LAYER
  5
62
330
2
100
AcDbSymbolTableRecord
100
AcDbLayerTableRecord
  2
Layer 2
 70
     4
 62
     7
  6
Continuous
370
    -3
390
F
  0
ENDTAB
  0
TABLE
  2
STYLE
  5
3
330
0
100
AcDbSymbolTable
 70
     1
  0
STYLE
  5
11
330
3
100
AcDbSymbolTableRecord
100
AcDbTextStyleTableRecord
  2
Standard
 70
     0
 40
0.0
 41
1.0
 50
0.0
 71
     0
 42
0.2
  3
txt
  4

  0
ENDTAB
  0
TABLE
  2
VIEW
  5
6
330
0
100
AcDbSymbolTable
 70
     0
  0
ENDTAB
  0
TABLE
  2
UCS
  5
7
330
0
100
AcDbSymbolTable
 70
     0
  0
ENDTAB
  0
TABLE
  2
APPID
  5
9
330
0
100
AcDbSymbolTable
 70
     1
  0
APPID
  5
12
330
9
100
AcDbSymbolTableRecord
100
AcDbRegAppTableRecord
  2
ACAD
 70
     0
  0
ENDTAB
  0
TABLE
  2
DIMSTYLE
  5
A
330
0
100
AcDbSymbolTable
 70
     1
100
AcDbDimStyleTable
  0
DIMSTYLE
105
27
330
A
100
AcDbSymbolTableRecord
100
AcDbDimStyleTableRecord
  2
Standard
 70
     0
340
11
  0
ENDTAB
  0
TABLE
  2
BLOCK_RECORD
  5
1
330
0
100
AcDbSymbolTable
 70
     2
  0
BLOCK_RECORD
  5
1F
330
1
100
AcDbSymbolTableRecord
100
AcDbBlockTableRecord
  2
*Model_Space
340
22
  0
BLOCK_RECORD
  5
1B
330
1
100
AcDbSymbolTableRecord
100
AcDbBlockTableRecord
  2
*Paper_Space
340
1E
  0
BLOCK_RECORD
  5
23
330
1
100
AcDbSymbolTableRecord
100
AcDbBlockTableRecord
  2
*Paper_Space0
340
26
  0
BLOCK_RECORD
  5
3C
330
1
100
AcDbSymbolTableRecord
100
AcDbBlockTableRecord
  2
block 2
340
0
102
{BLKREFS
331
3D
102
}
  0
ENDTAB
  0
ENDSEC
  0
SECTION
  2
BLOCKS
  0
BLOCK
  5
20
330
1F
100
AcDbEntity
  8
0
100
AcDbBlockBegin
  2
*Model_Space
 70
     0
 71
     0
 10
0.0
 20
0.0
 30
0.0
  3
*Model_Space
  1

  0
ENDBLK
  5
21
330
1F
100
AcDbEntity
  8
0
100
AcDbBlockEnd
  0
BLOCK
  5
1C
330
1B
100
AcDbEntity
 67
     1
  8
0
100
AcDbBlockBegin
  2
*Paper_Space
 70
     0
 71
     0
 10
0.0
 20
0.0
 30
0.0
  3
*Paper_Space
  1

  0
ENDBLK
  5
1D
330
1B
100
AcDbEntity
 67
     1
  8
0
100
AcDbBlockEnd
  0
BLOCK
  5
24
330
23
100
AcDbEntity
  8
0
100
AcDbBlockBegin
  2
*Paper_Space0
 70
     0
 71
     0
 10
0.0
 20
0.0
 30
0.0
  3
*Paper_Space0
  1

  0
ENDBLK
  5
25
330
23
100
AcDbEntity
  8
0
100
AcDbBlockEnd
  0
BLOCK
  5
3E
330
3C
100
AcDbEntity
  8
0
100
AcDbBlockBegin
  2
block 2
 70
     0
 71
     0
 10
0.0
 20
0.0
 30
0.0
  3
block 2
  1

  0
SPLINE
  5
40
330
3C
100
AcDbEntity
  8
Layer 1
370
     0
100
AcDbSpline
210
0.0
220
0.0
230
1.0
 70
    11
 71
     3
 72
    23
 73
    19
 74
     0
 42
0.0000000001
 43
0.0000000001
 40
0.0
 40
0.0
 40
0.0
 40
0.0
 40
1.0
 40
1.0
 40
1.0
 40
2.0
 40
2.0
 40
2.0
 40
3.0
 40
3.0
 40
3.0
 40
4.0
 40
4.0
 40
4.0
 40
5.0
 40
5.0
 40
5.0
 40
6.0
 40
6.0
 40
6.0
 40
6.0
 10
26.68884466563681
 20
-31.55455972518427
 30
0.0
 10
26.68884466563681
 20
-33.66516302326774
 30
0.0
 10
28.31840928111484
 20
-34.90846353293955
 30
0.0
 10
30.2579980393105
 20
-35.06866047300367
 30
0.0
 10
30.2579980393105
 20
-35.06866047300367
 30
0.0
 10
30.2579980393105
 20
-32.99281818836638
 30
0.0
 10
30.2579980393105
 20
-32.99281818836638
 30
0.0
 10
29.56629176778204
 20
-32.82786701653261
 30
0.0
 10
29.17379203914752
 20
-32.2601497315183
 30
0.0
 10
29.17379203914752
 20
-31.55455972518427
 30
0.0
 10
29.17379203914752
 20
-30.87053601658792
 30
0.0
 10
29.56629176778204
 20
-30.27940930775133
 30
0.0
 10
30.2579980393105
 20
-30.10618990675296
 30
0.0
 10
30.2579980393105
 20
-30.10618990675296
 30
0.0
 10
30.2579980393105
 20
-28.02741929095321
 30
0.0
 10
30.2579980393105
 20
-28.02741929095321
 30
0.0
 10
28.30852185707217
 20
-28.18820189724982
 30
0.0
 10
26.68884466563681
 20
-29.44321573157148
 30
0.0
 10
26.68884466563681
 20
-31.55455972518427
 30
0.0
  0
HATCH
  5
41
330
3C
100
AcDbEntity
  8
Layer 1
 62
   230
420
 15466635
100
AcDbHatch
 10
0.0
 20
0.0
 30
0.0
210
0.0
220
0.0
230
1.0
  2
SOLID
 70
     1
 71
     0
 91
        1
 92
        1
 93
        1
 72
     4
 94
        3
 73
     0
 74
     1
 95
       23
 96
       19
 40
0.0
 40
0.0
 40
0.0
 40
0.0
 40
1.0
 40
1.0
 40
1.0
 40
2.0
 40
2.0
 40
2.0
 40
3.0
 40
3.0
 40
3.0
 40
4.0
 40
4.0
 40
4.0
 40
5.0
 40
5.0
 40
5.0
 40
6.0
 40
6.0
 40
6.0
 40
6.0
 10
26.68884466563681
 20
-31.55455972518427
 10
26.68884466563681
 20
-33.66516302326774
 10
28.31840928111484
 20
-34.90846353293955
 10
30.2579980393105
 20
-35.06866047300367
 10
30.2579980393105
 20
-35.06866047300367
 10
30.2579980393105
 20
-32.99281818836638
 10
30.2579980393105
 20
-32.99281818836638
 10
29.56629176778204
 20
-32.82786701653261
 10
29.17379203914752
 20
-32.2601497315183
 10
29.17379203914752
 20
-31.55455972518427
 10
29.17379203914752
 20
-30.87053601658792
 10
29.56629176778204
 20
-30.27940930775133
 10
30.2579980393105
 20
-30.10618990675296
 10
30.2579980393105
 20
-30.10618990675296
 10
30.2579980393105
 20
-28.02741929095321
 10
30.2579980393105
 20
-28.02741929095321
 10
28.30852185707217
 20
-28.18820189724982
 10
26.68884466563681
 20
-29.44321573157148
 10
26.68884466563681
 20
-31.55455972518427
 97
        0
 75
     2
 76
     1
 98
        0
  0
SPLINE
  5
42
330
3C
100
AcDbEntity
  8
Layer 1
370
     0
100
AcDbSpline
210
0.0
220
0.0
230
1.0
 70
    11
 71
     3
 72
    38
 73
    34
 74
     0
 42
0.0000000001
 43
0.0000000001
 40
0.0
 40
0.0
 40
0.0
 40
0.0
 40
1.0
 40
1.0
 40
1.0
 40
2.0
 40
2.0
 40
2.0
 40
3.0
 40
3.0
 40
3.0
 40
4.0
 40
4.0
 40
4.0
 40
5.0
 40
5.0
 40
5.0
 40
6.0
 40
6.0
 40
6.0
 40
7.0
 40
7.0
 40
7.0
 40
8.0
 40
8.0
 40
8.0
 40
9.0
 40
9.0
 40
9.0
 40
10.0
 40
10.0
 40
10.0
 40
11.0
 40
11.0
 40
11.0
 40
11.0
 10
23.76051350317445
 20
-29.31554049288813
 30
0.0
 10
23.76051350317445
 20
-29.31554049288813
 30
0.0
 10
23.73474418894478
 20
-29.31554049288813
 30
0.0
 10
23.73474418894478
 20
-29.31554049288813
 30
0.0
 10
23.73474418894478
 20
-29.31554049288813
 30
0.0
 10
23.73474418894478
 20
-28.22823390678843
 30
0.0
 10
23.73474418894478
 20
-28.22823390678843
 30
0.0
 10
23.73474418894478
 20
-28.22823390678843
 30
0.0
 10
21.37905679804065
 20
-28.22823390678843
 30
0.0
 10
21.37905679804065
 20
-28.22823390678843
 30
0.0
 10
21.37905679804065
 20
-28.22823390678843
 30
0.0
 10
21.37905679804065
 20
-34.86784585716845
 30
0.0
 10
21.37905679804065
 20
-34.86784585716845
 30
0.0
 10
21.37905679804065
 20
-34.86784585716845
 30
0.0
 10
23.73474418894478
 20
-34.86784585716845
 30
0.0
 10
23.73474418894478
 20
-34.86784585716845
 30
0.0
 10
23.73474418894478
 20
-34.86784585716845
 30
0.0
 10
23.73474418894478
 20
-32.18883625497362
 30
0.0
 10
23.73474418894478
 20
-32.18883625497362
 30
0.0
 10
23.73474418894478
 20
-31.04978433468547
 30
0.0
 10
24.05810085119034
 20
-30.18263657557066
 30
0.0
 10
25.36523898020383
 20
-30.18263657557066
 30
0.0
 10
25.72773192716182
 20
-30.18263657557066
 30
0.0
 10
26.0384450889765
 20
-30.22142835073457
 30
0.0
 10
26.36180175122205
 20
-30.40267482421357
 30
0.0
 10
26.36180175122205
 20
-30.40267482421357
 30
0.0
 10
26.36180175122205
 20
-28.13771402291349
 30
0.0
 10
26.36180175122205
 20
-28.13771402291349
 30
0.0
 10
26.36180175122205
 20
-28.13771402291349
 30
0.0
 10
25.90897840064081
 20
-28.13771402291349
 30
0.0
 10
25.90897840064081
 20
-28.13771402291349
 30
0.0
 10
24.98993027804071
 20
-28.13771402291349
 30
0.0
 10
24.21354355948481
 20
-28.50001748961979
 30
0.0
 10
23.76051350317445
 20
-29.31554049288813
 30
0.0
  0
HATCH
  5
43
330
3C
100
AcDbEntity
  8
Layer 1
 62
   230
420
 15466635
100
AcDbHatch
 10
0.0
 20
0.0
 30
0.0
210
0.0
220
0.0
230
1.0
  2
SOLID
 70
     1
 71
     0
 91
        1
 92
        1
 93
        1
 72
     4
 94
        3
 73
     0
 74
     1
 95
       38
 96
       34
 40
0.0
 40
0.0
 40
0.0
 40
0.0
 40
1.0
 40
1.0
 40
1.0
 40
2.0
 40
2.0
 40
2.0
 40
3.0
 40
3.0
 40
3.0
 40
4.0
 40
4.0
 40
4.0
 40
5.0
 40
5.0
 40
5.0
 40
6.0
 40
6.0
 40
6.0
 40
7.0
 40
7.0
 40
7.0
 40
8.0
 40
8.0
 40
8.0
 40
9.0
 40
9.0
 40
9.0
 40
10.0
 40
10.0
 40
10.0
 40
11.0
 40
11.0
 40
11.0
 40
11.0
 10
23.76051350317445
 20
-29.31554049288813
 10
23.76051350317445
 20
-29.31554049288813
 10
23.73474418894478
 20
-29.31554049288813
 10
23.73474418894478
 20
-29.31554049288813
 10
23.73474418894478
 20
-29.31554049288813
 10
23.73474418894478
 20
-28.22823390678843
 10
23.73474418894478
 20
-28.22823390678843
 10
23.73474418894478
 20
-28.22823390678843
 10
21.37905679804065
 20
-28.22823390678843
 10
21.37905679804065
 20
-28.22823390678843
 10
21.37905679804065
 20
-28.22823390678843
 10
21.37905679804065
 20
-34.86784585716845
 10
21.37905679804065
 20
-34.86784585716845
 10
21.37905679804065
 20
-34.86784585716845
 10
23.73474418894478
 20
-34.86784585716845
 10
23.73474418894478
 20
-34.86784585716845
 10
23.73474418894478
 20
-34.86784585716845
 10
23.73474418894478
 20
-32.18883625497362
 10
23.73474418894478
 20
-32.18883625497362
 10
23.73474418894478
 20
-31.04978433468547
 10
24.05810085119034
 20
-30.18263657557066
 10
25.36523898020383
 20
-30.18263657557066
 10
25.72773192716182
 20
-30.18263657557066
 10
26.0384450889765
 20
-30.22142835073457
 10
26.36180175122205
 20
-30.40267482421357
 10
26.36180175122205
 20
-30.40267482421357
 10
26.36180175122205
 20
-28.13771402291349
 10
26.36180175122205
 20
-28.13771402291349
 10
26.36180175122205
 20
-28.13771402291349
 10
25.90897840064081
 20
-28.13771402291349
 10
25.90897840064081
 20
-28.13771402291349
 10
24.98993027804071
 20
-28.13771402291349
 10
24.21354355948481
 20
-28.50001748961979
 10
23.76051350317445
 20
-29.31554049288813
 97
        0
 75
     2
 76
     1
 98
        0
  0
SPLINE
  5
44
330
3C
100
AcDbEntity
  8
Layer 1
370
     0
100
AcDbSpline
210
0.0
220
0.0
230
1.0
 70
    11
 71
     3
 72
    23
 73
    19
 74
     0
 42
0.0000000001
 43
0.0000000001
 40
0.0
 40
0.0
 40
0.0
 40
0.0
 40
1.0
 40
1.0
 40
1.0
 40
2.0
 40
2.0
 40
2.0
 40
3.0
 40
3.0
 40
3.0
 40
4.0
 40
4.0
 40
4.0
 40
5.0
 40
5.0
 40
5.0
 40
6.0
 40
6.0
 40
6.0
 40
6.0
 10
31.1185139896162
 20
-28.02741929095321
 30
0.0
 10
31.1185139896162
 20
-28.02741929095321
 30
0.0
 10
31.1185139896162
 20
-30.10618990675296
 30
0.0
 10
31.1185139896162
 20
-30.10618990675296
 30
0.0
 10
31.80984130064129
 20
-30.27940930775133
 30
0.0
 10
32.2023410292758
 20
-30.87053601658792
 30
0.0
 10
32.2023410292758
 20
-31.55455972518427
 30
0.0
 10
32.2023410292758
 20
-32.2601497315183
 30
0.0
 10
31.80984130064129
 20
-32.82748805602924
 30
0.0
 10
31.1185139896162
 20
-32.99281818836638
 30
0.0
 10
31.1185139896162
 20
-32.99281818836638
 30
0.0
 10
31.1185139896162
 20
-35.06866047300367
 30
0.0
 10
31.1185139896162
 20
-35.06866047300367
 30
0.0
 10
33.06778346612541
 20
-34.90808457243617
 30
0.0
 10
34.68732285374136
 20
-33.65379420816641
 30
0.0
 10
34.68732285374136
 20
-31.55455972518427
 30
0.0
 10
34.68732285374136
 20
-29.44321573157148
 30
0.0
 10
33.06778346612541
 20
-28.18820189724982
 30
0.0
 10
31.1185139896162
 20
-28.02741929095321
 30
0.0
  0
HATCH
  5
45
330
3C
100
AcDbEntity
  8
Layer 1
 62
   230
420
 15466635
100
AcDbHatch
 10
0.0
 20
0.0
 30
0.0
210
0.0
220
0.0
230
1.0
  2
SOLID
 70
     1
 71
     0
 91
        1
 92
        1
 93
        1
 72
     4
 94
        3
 73
     0
 74
     1
 95
       23
 96
       19
 40
0.0
 40
0.0
 40
0.0
 40
0.0
 40
1.0
 40
1.0
 40
1.0
 40
2.0
 40
2.0
 40
2.0
 40
3.0
 40
3.0
 40
3.0
 40
4.0
 40
4.0
 40
4.0
 40
5.0
 40
5.0
 40
5.0
 40
6.0
 40
6.0
 40
6.0
 40
6.0
 10
31.1185139896162
 20
-28.02741929095321
 10
31.1185139896162
 20
-28.02741929095321
 10
31.1185139896162
 20
-30.10618990675296
 10
31.1185139896162
 20
-30.10618990675296
 10
31.80984130064129
 20
-30.27940930775133
 10
32.2023410292758
 20
-30.87053601658792
 10
32.2023410292758
 20
-31.55455972518427
 10
32.2023410292758
 20
-32.2601497315183
 10
31.80984130064129
 20
-32.82748805602924
 10
31.1185139896162
 20
-32.99281818836638
 10
31.1185139896162
 20
-32.99281818836638
 10
31.1185139896162
 20
-35.06866047300367
 10
31.1185139896162
 20
-35.06866047300367
 10
33.06778346612541
 20
-34.90808457243617
 10
34.68732285374136
 20
-33.65379420816641
 10
34.68732285374136
 20
-31.55455972518427
 10
34.68732285374136
 20
-29.44321573157148
 10
33.06778346612541
 20
-28.18820189724982
 10
31.1185139896162
 20
-28.02741929095321
 97
        0
 75
     2
 76
     1
 98
        0
  0
SPLINE
  5
46
330
3C
100
AcDbEntity
  8
Layer 1
370
     0
100
AcDbSpline
210
0.0
220
0.0
230
1.0
 70
    11
 71
     3
 72
    23
 73
    19
 74
     0
 42
0.0000000001
 43
0.0000000001
 40
0.0
 40
0.0
 40
0.0
 40
0.0
 40
1.0
 40
1.0
 40
1.0
 40
2.0
 40
2.0
 40
2.0
 40
3.0
 40
3.0
 40
3.0
 40
4.0
 40
4.0
 40
4.0
 40
5.0
 40
5.0
 40
5.0
 40
6.0
 40
6.0
 40
6.0
 40
6.0
 10
37.72334770107263
 20
-31.77477022860144
 30
0.0
 10
37.72334770107263
 20
-31.77477022860144
 30
0.0
 10
37.72334770107263
 20
-28.22823390678843
 30
0.0
 10
37.72334770107263
 20
-28.22823390678843
 30
0.0
 10
37.72334770107263
 20
-28.22823390678843
 30
0.0
 10
35.36769476112335
 20
-28.22823390678843
 30
0.0
 10
35.36769476112335
 20
-28.22823390678843
 30
0.0
 10
35.36769476112335
 20
-28.22823390678843
 30
0.0
 10
35.36769476112335
 20
-32.22759357918268
 30
0.0
 10
35.36769476112335
 20
-32.22759357918268
 30
0.0
 10
35.36769476112335
 20
-34.25368868501297
 30
0.0
 10
36.69164495610487
 20
-34.97722763882513
 30
0.0
 10
38.4710367742364
 20
-35.07307019522479
 30
0.0
 10
38.4710367742364
 20
-35.07307019522479
 30
0.0
 10
38.4710367742364
 20
-33.1592507512588
 30
0.0
 10
38.4710367742364
 20
-33.1592507512588
 30
0.0
 10
37.86804171145312
 20
-32.9993983207432
 30
0.0
 10
37.72334770107263
 20
-32.47229871149998
 30
0.0
 10
37.72334770107263
 20
-31.77477022860144
 30
0.0
  0
HATCH
  5
47
330
3C
100
AcDbEntity
  8
Layer 1
 62
   230
420
 15466635
100
AcDbHatch
 10
0.0
 20
0.0
 30
0.0
210
0.0
220
0.0
230
1.0
  2
SOLID
 70
     1
 71
     0
 91
        1
 92
        1
 93
        1
 72
     4
 94
        3
 73
     0
 74
     1
 95
       23
 96
       19
 40
0.0
 40
0.0
 40
0.0
 40
0.0
 40
1.0
 40
1.0
 40
1.0
 40
2.0
 40
2.0
 40
2.0
 40
3.0
 40
3.0
 40
3.0
 40
4.0
 40
4.0
 40
4.0
 40
5.0
 40
5.0
 40
5.0
 40
6.0
 40
6.0
 40
6.0
 40
6.0
 10
37.72334770107263
 20
-31.77477022860144
 10
37.72334770107263
 20
-31.77477022860144
 10
37.72334770107263
 20
-28.22823390678843
 10
37.72334770107263
 20
-28.22823390678843
 10
37.72334770107263
 20
-28.22823390678843
 10
35.36769476112335
 20
-28.22823390678843
 10
35.36769476112335
 20
-28.22823390678843
 10
35.36769476112335
 20
-28.22823390678843
 10
35.36769476112335
 20
-32.22759357918268
 10
35.36769476112335
 20
-32.22759357918268
 10
35.36769476112335
 20
-34.25368868501297
 10
36.69164495610487
 20
-34.97722763882513
 10
38.4710367742364
 20
-35.07307019522479
 10
38.4710367742364
 20
-35.07307019522479
 10
38.4710367742364
 20
-33.1592507512588
 10
38.4710367742364
 20
-33.1592507512588
 10
37.86804171145312
 20
-32.9993983207432
 10
37.72334770107263
 20
-32.47229871149998
 10
37.72334770107263
 20
-31.77477022860144
 97
        0
 75
     2
 76
     1
 98
        0
  0
SPLINE
  5
48
330
3C
100
AcDbEntity
  8
Layer 1
370
     0
100
AcDbSpline
210
0.0
220
0.0
230
1.0
 70
    11
 71
     3
 72
    23
 73
    19
 74
     0
 42
0.0000000001
 43
0.0000000001
 40
0.0
 40
0.0
 40
0.0
 40
0.0
 40
1.0
 40
1.0
 40
1.0
 40
2.0
 40
2.0
 40
2.0
 40
3.0
 40
3.0
 40
3.0
 40
4.0
 40
4.0
 40
4.0
 40
5.0
 40
5.0
 40
5.0
 40
6.0
 40
6.0
 40
6.0
 40
6.0
 10
40.0788628372025
 20
-31.77477022860144
 30
0.0
 10
40.0788628372025
 20
-32.47229871149998
 30
0.0
 10
39.93416882682201
 20
-32.9993983207432
 30
0.0
 10
39.33134601881299
 20
-33.1592507512588
 30
0.0
 10
39.33134601881299
 20
-33.1592507512588
 30
0.0
 10
39.33134601881299
 20
-35.07307019522479
 30
0.0
 10
39.33134601881299
 20
-35.07307019522479
 30
0.0
 10
41.11073783694454
 20
-34.97722763882513
 30
0.0
 10
42.43451577715179
 20
-34.25368868501297
 30
0.0
 10
42.43451577715179
 20
-32.22759357918268
 30
0.0
 10
42.43451577715179
 20
-32.22759357918268
 30
0.0
 10
42.43451577715179
 20
-28.22823390678843
 30
0.0
 10
42.43451577715179
 20
-28.22823390678843
 30
0.0
 10
42.43451577715179
 20
-28.22823390678843
 30
0.0
 10
40.0788628372025
 20
-28.22823390678843
 30
0.0
 10
40.0788628372025
 20
-28.22823390678843
 30
0.0
 10
40.0788628372025
 20
-28.22823390678843
 30
0.0
 10
40.0788628372025
 20
-31.77477022860144
 30
0.0
 10
40.0788628372025
 20
-31.77477022860144
 30
0.0
  0
HATCH
  5
49
330
3C
100
AcDbEntity
  8
Layer 1
 62
   230
420
 15466635
100
AcDbHatch
 10
0.0
 20
0.0
 30
0.0
210
0.0
220
0.0
230
1.0
  2
SOLID
 70
     1
 71
     0
 91
        1
 92
        1
 93
        1
 72
     4
 94
        3
 73
     0
 74
     1
 95
       23
 96
       19
 40
0.0
 40
0.0
 40
0.0
 40
0.0
 40
1.0
 40
1.0
 40
1.0
 40
2.0
 40
2.0
 40
2.0
 40
3.0
 40
3.0
 40
3.0
 40
4.0
 40
4.0
 40
4.0
 40
5.0
 40
5.0
 40
5.0
 40
6.0
 40
6.0
 40
6.0
 40
6.0
 10
40.0788628372025
 20
-31.77477022860144
 10
40.0788628372025
 20
-32.47229871149998
 10
39.93416882682201
 20
-32.9993983207432
 10
39.33134601881299
 20
-33.1592507512588
 10
39.33134601881299
 20
-33.1592507512588
 10
39.33134601881299
 20
-35.07307019522479
 10
39.33134601881299
 20
-35.07307019522479
 10
41.11073783694454
 20
-34.97722763882513
 10
42.43451577715179
 20
-34.25368868501297
 10
42.43451577715179
 20
-32.22759357918268
 10
42.43451577715179
 20
-32.22759357918268
 10
42.43451577715179
 20
-28.22823390678843
 10
42.43451577715179
 20
-28.22823390678843
 10
42.43451577715179
 20
-28.22823390678843
 10
40.0788628372025
 20
-28.22823390678843
 10
40.0788628372025
 20
-28.22823390678843
 10
40.0788628372025
 20
-28.22823390678843
 10
40.0788628372025
 20
-31.77477022860144
 10
40.0788628372025
 20
-31.77477022860144
 97
        0
 75
     2
 76
     1
 98
        0
  0
SPLINE
  5
4A
330
3C
100
AcDbEntity
  8
Layer 1
370
     0
100
AcDbSpline
210
0.0
220
0.0
230
1.0
 70
    11
 71
     3
 72
    20
 73
    16
 74
     0
 42
0.0000000001
 43
0.0000000001
 40
0.0
 40
0.0
 40
0.0
 40
0.0
 40
1.0
 40
1.0
 40
1.0
 40
2.0
 40
2.0
 40
2.0
 40
3.0
 40
3.0
 40
3.0
 40
4.0
 40
4.0
 40
4.0
 40
5.0
 40
5.0
 40
5.0
 40
5.0
 10
15.26253092066353
 20
-35.64443928145347
 30
0.0
 10
15.26253092066353
 20
-35.64443928145347
 30
0.0
 10
12.6221063879035
 20
-35.64443928145347
 30
0.0
 10
12.6221063879035
 20
-35.64443928145347
 30
0.0
 10
12.81248236441841
 20
-37.25095620813517
 30
0.0
 10
14.55583848377423
 20
-38.04729002955067
 30
0.0
 10
16.02265678852906
 20
-38.16507784419137
 30
0.0
 10
16.02265678852906
 20
-38.16507784419137
 30
0.0
 10
16.02265678852906
 20
-36.26114582426804
 30
0.0
 10
16.02265678852906
 20
-36.26114582426804
 30
0.0
 10
15.91182806676857
 20
-36.23554876481264
 30
0.0
 10
15.80244628511189
 20
-36.19930636030781
 30
0.0
 10
15.7025729669945
 20
-36.14921467195228
 30
0.0
 10
15.49555717928583
 20
-36.04568955262052
 30
0.0
 10
15.32729871578623
 20
-35.87743108912092
 30
0.0
 10
15.26253092066353
 20
-35.64443928145347
 30
0.0
  0
HATCH
  5
4B
330
3C
100
AcDbEntity
  8
Layer 1
 62
   230
420
 15466635
100
AcDbHatch
 10
0.0
 20
0.0
 30
0.0
210
0.0
220
0.0
230
1.0
  2
SOLID
 70
     1
 71
     0
 91
        1
 92
        1
 93
        1
 72
     4
 94
        3
 73
     0
 74
     1
 95
       20
 96
       16
 40
0.0
 40
0.0
 40
0.0
 40
0.0
 40
1.0
 40
1.0
 40
1.0
 40
2.0
 40
2.0
 40
2.0
 40
3.0
 40
3.0
 40
3.0
 40
4.0
 40
4.0
 40
4.0
 40
5.0
 40
5.0
 40
5.0
 40
5.0
 10
15.26253092066353
 20
-35.64443928145347
 10
15.26253092066353
 20
-35.64443928145347
 10
12.6221063879035
 20
-35.64443928145347
 10
12.6221063879035
 20
-35.64443928145347
 10
12.81248236441841
 20
-37.25095620813517
 10
14.55583848377423
 20
-38.04729002955067
 10
16.02265678852906
 20
-38.16507784419137
 10
16.02265678852906
 20
-38.16507784419137
 10
16.02265678852906
 20
-36.26114582426804
 10
16.02265678852906
 20
-36.26114582426804
 10
15.91182806676857
 20
-36.23554876481264
 10
15.80244628511189
 20
-36.19930636030781
 10
15.7025729669945
 20
-36.14921467195228
 10
15.49555717928583
 20
-36.04568955262052
 10
15.32729871578623
 20
-35.87743108912092
 10
15.26253092066353
 20
-35.64443928145347
 97
        0
 75
     2
 76
     1
 98
        0
  0
SPLINE
  5
4C
330
3C
100
AcDbEntity
  8
Layer 1
370
     0
100
AcDbSpline
210
0.0
220
0.0
230
1.0
 70
    11
 71
     3
 72
    29
 73
    25
 74
     0
 42
0.0000000001
 43
0.0000000001
 40
0.0
 40
0.0
 40
0.0
 40
0.0
 40
1.0
 40
1.0
 40
1.0
 40
2.0
 40
2.0
 40
2.0
 40
3.0
 40
3.0
 40
3.0
 40
4.0
 40
4.0
 40
4.0
 40
5.0
 40
5.0
 40
5.0
 40
6.0
 40
6.0
 40
6.0
 40
7.0
 40
7.0
 40
7.0
 40
8.0
 40
8.0
 40
8.0
 40
8.0
 10
12.50559325859235
 20
-31.60613280459846
 30
0.0
 10
12.50559325859235
 20
-33.52174369821678
 30
0.0
 10
13.83891411329374
 20
-34.99734699645899
 30
0.0
 10
15.78032877209658
 20
-34.99734699645899
 30
0.0
 10
15.86390678856874
 20
-34.99734699645899
 30
0.0
 10
15.9440052586008
 20
-34.99297172519272
 30
0.0
 10
16.02265678852906
 20
-34.98673610236442
 30
0.0
 10
16.02265678852906
 20
-34.98673610236442
 30
0.0
 10
16.02265678852906
 20
-32.94124510895219
 30
0.0
 10
16.02265678852906
 20
-32.94124510895219
 30
0.0
 10
15.33112277177486
 20
-32.77591497661505
 30
0.0
 10
14.93862304314034
 20
-32.20823214255558
 30
0.0
 10
14.93862304314034
 20
-31.50298664577008
 30
0.0
 10
14.93862304314034
 20
-30.81875623144461
 30
0.0
 10
15.33112277177486
 20
-30.22762952260802
 30
0.0
 10
16.02265678852906
 20
-30.05444457256451
 30
0.0
 10
16.02265678852906
 20
-30.05444457256451
 30
0.0
 10
16.02265678852906
 20
-28.01315659564428
 30
0.0
 10
16.02265678852906
 20
-28.01315659564428
 30
0.0
 10
15.98496744392042
 20
-28.01150294981136
 30
0.0
 10
15.94765705981517
 20
-28.00823010910037
 30
0.0
 10
15.90962320565801
 20
-28.00823010910037
 30
0.0
 10
13.8776714375028
 20
-28.00823010910037
 30
0.0
 10
12.50559325859235
 20
-29.66487317509246
 30
0.0
 10
12.50559325859235
 20
-31.60613280459846
 30
0.0
  0
HATCH
  5
4D
330
3C
100
AcDbEntity
  8
Layer 1
 62
   230
420
 15466635
100
AcDbHatch
 10
0.0
 20
0.0
 30
0.0
210
0.0
220
0.0
230
1.0
  2
SOLID
 70
     1
 71
     0
 91
        1
 92
        1
 93
        1
 72
     4
 94
        3
 73
     0
 74
     1
 95
       29
 96
       25
 40
0.0
 40
0.0
 40
0.0
 40
0.0
 40
1.0
 40
1.0
 40
1.0
 40
2.0
 40
2.0
 40
2.0
 40
3.0
 40
3.0
 40
3.0
 40
4.0
 40
4.0
 40
4.0
 40
5.0
 40
5.0
 40
5.0
 40
6.0
 40
6.0
 40
6.0
 40
7.0
 40
7.0
 40
7.0
 40
8.0
 40
8.0
 40
8.0
 40
8.0
 10
12.50559325859235
 20
-31.60613280459846
 10
12.50559325859235
 20
-33.52174369821678
 10
13.83891411329374
 20
-34.99734699645899
 10
15.78032877209658
 20
-34.99734699645899
 10
15.86390678856874
 20
-34.99734699645899
 10
15.9440052586008
 20
-34.99297172519272
 10
16.02265678852906
 20
-34.98673610236442
 10
16.02265678852906
 20
-34.98673610236442
 10
16.02265678852906
 20
-32.94124510895219
 10
16.02265678852906
 20
-32.94124510895219
 10
15.33112277177486
 20
-32.77591497661505
 10
14.93862304314034
 20
-32.20823214255558
 10
14.93862304314034
 20
-31.50298664577008
 10
14.93862304314034
 20
-30.81875623144461
 10
15.33112277177486
 20
-30.22762952260802
 10
16.02265678852906
 20
-30.05444457256451
 10
16.02265678852906
 20
-30.05444457256451
 10
16.02265678852906
 20
-28.01315659564428
 10
16.02265678852906
 20
-28.01315659564428
 10
15.98496744392042
 20
-28.01150294981136
 10
15.94765705981517
 20
-28.00823010910037
 10
15.90962320565801
 20
-28.00823010910037
 10
13.8776714375028
 20
-28.00823010910037
 10
12.50559325859235
 20
-29.66487317509246
 10
12.50559325859235
 20
-31.60613280459846
 97
        0
 75
     2
 76
     1
 98
        0
  0
SPLINE
  5
4E
330
3C
100
AcDbEntity
  8
Layer 1
370
     0
100
AcDbSpline
210
0.0
220
0.0
230
1.0
 70
    11
 71
     3
 72
    47
 73
    43
 74
     0
 42
0.0000000001
 43
0.0000000001
 40
0.0
 40
0.0
 40
0.0
 40
0.0
 40
1.0
 40
1.0
 40
1.0
 40
2.0
 40
2.0
 40
2.0
 40
3.0
 40
3.0
 40
3.0
 40
4.0
 40
4.0
 40
4.0
 40
5.0
 40
5.0
 40
5.0
 40
6.0
 40
6.0
 40
6.0
 40
7.0
 40
7.0
 40
7.0
 40
8.0
 40
8.0
 40
8.0
 40
9.0
 40
9.0
 40
9.0
 40
10.0
 40
10.0
 40
10.0
 40
11.0
 40
11.0
 40
11.0
 40
12.0
 40
12.0
 40
12.0
 40
13.0
 40
13.0
 40
13.0
 40
14.0
 40
14.0
 40
14.0
 40
14.0
 10
17.88979518866991
 20
-28.92707152597135
 30
0.0
 10
17.88979518866991
 20
-28.92707152597135
 30
0.0
 10
17.86402587444024
 20
-28.92707152597135
 30
0.0
 10
17.86402587444024
 20
-28.92707152597135
 30
0.0
 10
17.60357665575535
 20
-28.55799844663654
 30
0.0
 10
17.26578504342661
 20
-28.31548094995238
 30
0.0
 10
16.88317273883476
 20
-28.17245781088223
 30
0.0
 10
16.88317273883476
 20
-28.17245781088223
 30
0.0
 10
16.88317273883476
 20
-30.05444457256451
 30
0.0
 10
16.88317273883476
 20
-30.05444457256451
 30
0.0
 10
17.57467230463411
 20
-30.22762952260802
 30
0.0
 10
17.96717203326862
 20
-30.81896293717373
 30
0.0
 10
17.96717203326862
 20
-31.50298664577008
 30
0.0
 10
17.96717203326862
 20
-32.20823214255558
 30
0.0
 10
17.57467230463411
 20
-32.77591497661505
 30
0.0
 10
16.88317273883476
 20
-32.94124510895219
 30
0.0
 10
16.88317273883476
 20
-32.94124510895219
 30
0.0
 10
16.88317273883476
 20
-34.79177814885414
 30
0.0
 10
16.88317273883476
 20
-34.79177814885414
 30
0.0
 10
17.24583794056701
 20
-34.64253661243311
 30
0.0
 10
17.57029703336784
 20
-34.41099174486947
 30
0.0
 10
17.88979518866991
 20
-34.09128688383829
 30
0.0
 10
17.88979518866991
 20
-34.09128688383829
 30
0.0
 10
17.88979518866991
 20
-34.40182779087871
 30
0.0
 10
17.88979518866991
 20
-34.40182779087871
 30
0.0
 10
17.88979518866991
 20
-35.31264213526906
 30
0.0
 10
17.71003010624958
 20
-36.04386365201334
 30
0.0
 10
16.88317273883476
 20
-36.24615965890721
 30
0.0
 10
16.88317273883476
 20
-36.24615965890721
 30
0.0
 10
16.88317273883476
 20
-38.16139159202215
 30
0.0
 10
16.88317273883476
 20
-38.16139159202215
 30
0.0
 10
19.02815808986102
 20
-38.01473387721506
 30
0.0
 10
20.24548257957404
 20
-36.85005044651665
 30
0.0
 10
20.24548257957404
 20
-34.22078802312883
 30
0.0
 10
20.24548257957404
 20
-34.22078802312883
 30
0.0
 10
20.24548257957404
 20
-28.22823390678843
 30
0.0
 10
20.24548257957404
 20
-28.22823390678843
 30
0.0
 10
20.24548257957404
 20
-28.22823390678843
 30
0.0
 10
17.88979518866991
 20
-28.22823390678843
 30
0.0
 10
17.88979518866991
 20
-28.22823390678843
 30
0.0
 10
17.88979518866991
 20
-28.22823390678843
 30
0.0
 10
17.88979518866991
 20
-28.92707152597135
 30
0.0
 10
17.88979518866991
 20
-28.92707152597135
 30
0.0
  0
HATCH
  5
4F
330
3C
100
AcDbEntity
  8
Layer 1
 62
   230
420
 15466635
100
AcDbHatch
 10
0.0
 20
0.0
 30
0.0
210
0.0
220
0.0
230
1.0
  2
SOLID
 70
     1
 71
     0
 91
        1
 92
        1
 93
        1
 72
     4
 94
        3
 73
     0
 74
     1
 95
       47
 96
       43
 40
0.0
 40
0.0
 40
0.0
 40
0.0
 40
1.0
 40
1.0
 40
1.0
 40
2.0
 40
2.0
 40
2.0
 40
3.0
 40
3.0
 40
3.0
 40
4.0
 40
4.0
 40
4.0
 40
5.0
 40
5.0
 40
5.0
 40
6.0
 40
6.0
 40
6.0
 40
7.0
 40
7.0
 40
7.0
 40
8.0
 40
8.0
 40
8.0
 40
9.0
 40
9.0
 40
9.0
 40
10.0
 40
10.0
 40
10.0
 40
11.0
 40
11.0
 40
11.0
 40
12.0
 40
12.0
 40
12.0
 40
13.0
 40
13.0
 40
13.0
 40
14.0
 40
14.0
 40
14.0
 40
14.0
 10
17.88979518866991
 20
-28.92707152597135
 10
17.88979518866991
 20
-28.92707152597135
 10
17.86402587444024
 20
-28.92707152597135
 10
17.86402587444024
 20
-28.92707152597135
 10
17.60357665575535
 20
-28.55799844663654
 10
17.26578504342661
 20
-28.31548094995238
 10
16.88317273883476
 20
-28.17245781088223
 10
16.88317273883476
 20
-28.17245781088223
 10
16.88317273883476
 20
-30.05444457256451
 10
16.88317273883476
 20
-30.05444457256451
 10
17.57467230463411
 20
-30.22762952260802
 10
17.96717203326862
 20
-30.81896293717373
 10
17.96717203326862
 20
-31.50298664577008
 10
17.96717203326862
 20
-32.20823214255558
 10
17.57467230463411
 20
-32.77591497661505
 10
16.88317273883476
 20
-32.94124510895219
 10
16.88317273883476
 20
-32.94124510895219
 10
16.88317273883476
 20
-34.79177814885414
 10
16.88317273883476
 20
-34.79177814885414
 10
17.24583794056701
 20
-34.64253661243311
 10
17.57029703336784
 20
-34.41099174486947
 10
17.88979518866991
 20
-34.09128688383829
 10
17.88979518866991
 20
-34.09128688383829
 10
17.88979518866991
 20
-34.40182779087871
 10
17.88979518866991
 20
-34.40182779087871
 10
17.88979518866991
 20
-35.31264213526906
 10
17.71003010624958
 20
-36.04386365201334
 10
16.88317273883476
 20
-36.24615965890721
 10
16.88317273883476
 20
-36.24615965890721
 10
16.88317273883476
 20
-38.16139159202215
 10
16.88317273883476
 20
-38.16139159202215
 10
19.02815808986102
 20
-38.01473387721506
 10
20.24548257957404
 20
-36.85005044651665
 10
20.24548257957404
 20
-34.22078802312883
 10
20.24548257957404
 20
-34.22078802312883
 10
20.24548257957404
 20
-28.22823390678843
 10
20.24548257957404
 20
-28.22823390678843
 10
20.24548257957404
 20
-28.22823390678843
 10
17.88979518866991
 20
-28.22823390678843
 10
17.88979518866991
 20
-28.22823390678843
 10
17.88979518866991
 20
-28.22823390678843
 10
17.88979518866991
 20
-28.92707152597135
 10
17.88979518866991
 20
-28.92707152597135
 97
        0
 75
     2
 76
     1
 98
        0
  0
SPLINE
  5
50
330
3C
100
AcDbEntity
  8
Layer 1
370
     0
100
AcDbSpline
210
0.0
220
0.0
230
1.0
 70
    11
 71
     3
 72
    26
 73
    22
 74
     0
 42
0.0000000001
 43
0.0000000001
 40
0.0
 40
0.0
 40
0.0
 40
0.0
 40
1.0
 40
1.0
 40
1.0
 40
2.0
 40
2.0
 40
2.0
 40
3.0
 40
3.0
 40
3.0
 40
4.0
 40
4.0
 40
4.0
 40
5.0
 40
5.0
 40
5.0
 40
6.0
 40
6.0
 40
6.0
 40
7.0
 40
7.0
 40
7.0
 40
7.0
 10
63.99495685249084
 20
-28.03766845002183
 30
0.0
 10
63.99495685249084
 20
-28.03766845002183
 30
0.0
 10
63.99495685249084
 20
-29.59647080423283
 30
0.0
 10
63.99495685249084
 20
-29.59647080423283
 30
0.0
 10
64.45804658761813
 20
-29.72998547976368
 30
0.0
 10
64.83552569993695
 20
-30.08772419495202
 30
0.0
 10
64.92661402456696
 20
-30.58373181744087
 30
0.0
 10
64.92661402456696
 20
-30.58373181744087
 30
0.0
 10
63.99495685249084
 20
-30.58373181744087
 30
0.0
 10
63.99495685249084
 20
-30.58373181744087
 30
0.0
 10
63.99495685249084
 20
-30.58373181744087
 30
0.0
 10
63.99495685249084
 20
-31.94302869210104
 30
0.0
 10
63.99495685249084
 20
-31.94302869210104
 30
0.0
 10
63.99495685249084
 20
-31.94302869210104
 30
0.0
 10
67.11400850101663
 20
-31.94302869210104
 30
0.0
 10
67.11400850101663
 20
-31.94302869210104
 30
0.0
 10
67.11400850101663
 20
-31.94302869210104
 30
0.0
 10
67.11400850101663
 20
-31.69684216872509
 30
0.0
 10
67.11400850101663
 20
-31.69684216872509
 30
0.0
 10
67.11400850101663
 20
-29.60854586390862
 30
0.0
 10
65.97788491189094
 20
-28.23903428113469
 30
0.0
 10
63.99495685249084
 20
-28.03766845002183
 30
0.0
  0
HATCH
  5
51
330
3C
100
AcDbEntity
  8
Layer 1
 62
   230
420
 15466635
100
AcDbHatch
 10
0.0
 20
0.0
 30
0.0
210
0.0
220
0.0
230
1.0
  2
SOLID
 70
     1
 71
     0
 91
        1
 92
        1
 93
        1
 72
     4
 94
        3
 73
     0
 74
     1
 95
       26
 96
       22
 40
0.0
 40
0.0
 40
0.0
 40
0.0
 40
1.0
 40
1.0
 40
1.0
 40
2.0
 40
2.0
 40
2.0
 40
3.0
 40
3.0
 40
3.0
 40
4.0
 40
4.0
 40
4.0
 40
5.0
 40
5.0
 40
5.0
 40
6.0
 40
6.0
 40
6.0
 40
7.0
 40
7.0
 40
7.0
 40
7.0
 10
63.99495685249084
 20
-28.03766845002183
 10
63.99495685249084
 20
-28.03766845002183
 10
63.99495685249084
 20
-29.59647080423283
 10
63.99495685249084
 20
-29.59647080423283
 10
64.45804658761813
 20
-29.72998547976368
 10
64.83552569993695
 20
-30.08772419495202
 10
64.92661402456696
 20
-30.58373181744087
 10
64.92661402456696
 20
-30.58373181744087
 10
63.99495685249084
 20
-30.58373181744087
 10
63.99495685249084
 20
-30.58373181744087
 10
63.99495685249084
 20
-30.58373181744087
 10
63.99495685249084
 20
-31.94302869210104
 10
63.99495685249084
 20
-31.94302869210104
 10
63.99495685249084
 20
-31.94302869210104
 10
67.11400850101663
 20
-31.94302869210104
 10
67.11400850101663
 20
-31.94302869210104
 10
67.11400850101663
 20
-31.94302869210104
 10
67.11400850101663
 20
-31.69684216872509
 10
67.11400850101663
 20
-31.69684216872509
 10
67.11400850101663
 20
-29.60854586390862
 10
65.97788491189094
 20
-28.23903428113469
 10
63.99495685249084
 20
-28.03766845002183
 97
        0
 75
     2
 76
     1
 98
        0
  0
SPLINE
  5
52
330
3C
100
AcDbEntity
  8
Layer 1
370
     0
100
AcDbSpline
210
0.0
220
0.0
230
1.0
 70
    11
 71
     3
 72
    41
 73
    37
 74
     0
 42
0.0000000001
 43
0.0000000001
 40
0.0
 40
0.0
 40
0.0
 40
0.0
 40
1.0
 40
1.0
 40
1.0
 40
2.0
 40
2.0
 40
2.0
 40
3.0
 40
3.0
 40
3.0
 40
4.0
 40
4.0
 40
4.0
 40
5.0
 40
5.0
 40
5.0
 40
6.0
 40
6.0
 40
6.0
 40
7.0
 40
7.0
 40
7.0
 40
8.0
 40
8.0
 40
8.0
 40
9.0
 40
9.0
 40
9.0
 40
10.0
 40
10.0
 40
10.0
 40
11.0
 40
11.0
 40
11.0
 40
12.0
 40
12.0
 40
12.0
 40
12.0
 10
73.354730070637
 20
-28.8753261917829
 30
0.0
 10
73.09062905073776
 20
-28.56294215865787
 30
0.0
 10
72.73654213676377
 20
-28.33816690372275
 30
0.0
 10
72.34769420934363
 20
-28.19550549967855
 30
0.0
 10
72.34769420934363
 20
-28.19550549967855
 30
0.0
 10
72.34769420934363
 20
-30.1060176519787
 30
0.0
 10
72.34769420934363
 20
-30.1060176519787
 30
0.0
 10
73.03977944137547
 20
-30.27920260202221
 30
0.0
 10
73.43190020950661
 20
-30.87053601658792
 30
0.0
 10
73.43190020950661
 20
-31.55455972518427
 30
0.0
 10
73.43190020950661
 20
-32.2601497315183
 30
0.0
 10
73.03977944137547
 20
-32.82786701653261
 30
0.0
 10
72.34769420934363
 20
-32.99281818836638
 30
0.0
 10
72.34769420934363
 20
-32.99281818836638
 30
0.0
 10
72.34769420934363
 20
-34.90222791011124
 30
0.0
 10
72.34769420934363
 20
-34.90222791011124
 30
0.0
 10
72.74749754040687
 20
-34.74788763237206
 30
0.0
 10
73.09975855377367
 20
-34.49474201611589
 30
0.0
 10
73.32875405067823
 20
-34.13004420804734
 30
0.0
 10
73.32875405067823
 20
-34.13004420804734
 30
0.0
 10
73.354730070637
 20
-34.13004420804734
 30
0.0
 10
73.354730070637
 20
-34.13004420804734
 30
0.0
 10
73.354730070637
 20
-34.13004420804734
 30
0.0
 10
73.354730070637
 20
-34.86784585716845
 30
0.0
 10
73.354730070637
 20
-34.86784585716845
 30
0.0
 10
73.354730070637
 20
-34.86784585716845
 30
0.0
 10
75.71003850103776
 20
-34.86784585716845
 30
0.0
 10
75.71003850103776
 20
-34.86784585716845
 30
0.0
 10
75.71003850103776
 20
-34.86784585716845
 30
0.0
 10
75.71003850103776
 20
-24.12540079149469
 30
0.0
 10
75.71003850103776
 20
-24.12540079149469
 30
0.0
 10
75.71003850103776
 20
-24.12540079149469
 30
0.0
 10
73.354730070637
 20
-24.12540079149469
 30
0.0
 10
73.354730070637
 20
-24.12540079149469
 30
0.0
 10
73.354730070637
 20
-24.12540079149469
 30
0.0
 10
73.354730070637
 20
-28.8753261917829
 30
0.0
 10
73.354730070637
 20
-28.8753261917829
 30
0.0
  0
HATCH
  5
53
330
3C
100
AcDbEntity
  8
Layer 1
 62
   230
420
 15466635
100
AcDbHatch
 10
0.0
 20
0.0
 30
0.0
210
0.0
220
0.0
230
1.0
  2
SOLID
 70
     1
 71
     0
 91
        1
 92
        1
 93
        1
 72
     4
 94
        3
 73
     0
 74
     1
 95
       41
 96
       37
 40
0.0
 40
0.0
 40
0.0
 40
0.0
 40
1.0
 40
1.0
 40
1.0
 40
2.0
 40
2.0
 40
2.0
 40
3.0
 40
3.0
 40
3.0
 40
4.0
 40
4.0
 40
4.0
 40
5.0
 40
5.0
 40
5.0
 40
6.0
 40
6.0
 40
6.0
 40
7.0
 40
7.0
 40
7.0
 40
8.0
 40
8.0
 40
8.0
 40
9.0
 40
9.0
 40
9.0
 40
10.0
 40
10.0
 40
10.0
 40
11.0
 40
11.0
 40
11.0
 40
12.0
 40
12.0
 40
12.0
 40
12.0
 10
73.354730070637
 20
-28.8753261917829
 10
73.09062905073776
 20
-28.56294215865787
 10
72.73654213676377
 20
-28.33816690372275
 10
72.34769420934363
 20
-28.19550549967855
 10
72.34769420934363
 20
-28.19550549967855
 10
72.34769420934363
 20
-30.1060176519787
 10
72.34769420934363
 20
-30.1060176519787
 10
73.03977944137547
 20
-30.27920260202221
 10
73.43190020950661
 20
-30.87053601658792
 10
73.43190020950661
 20
-31.55455972518427
 10
73.43190020950661
 20
-32.2601497315183
 10
73.03977944137547
 20
-32.82786701653261
 10
72.34769420934363
 20
-32.99281818836638
 10
72.34769420934363
 20
-32.99281818836638
 10
72.34769420934363
 20
-34.90222791011124
 10
72.34769420934363
 20
-34.90222791011124
 10
72.74749754040687
 20
-34.74788763237206
 10
73.09975855377367
 20
-34.49474201611589
 10
73.32875405067823
 20
-34.13004420804734
 10
73.32875405067823
 20
-34.13004420804734
 10
73.354730070637
 20
-34.13004420804734
 10
73.354730070637
 20
-34.13004420804734
 10
73.354730070637
 20
-34.13004420804734
 10
73.354730070637
 20
-34.86784585716845
 10
73.354730070637
 20
-34.86784585716845
 10
73.354730070637
 20
-34.86784585716845
 10
75.71003850103776
 20
-34.86784585716845
 10
75.71003850103776
 20
-34.86784585716845
 10
75.71003850103776
 20
-34.86784585716845
 10
75.71003850103776
 20
-24.12540079149469
 10
75.71003850103776
 20
-24.12540079149469
 10
75.71003850103776
 20
-24.12540079149469
 10
73.354730070637
 20
-24.12540079149469
 10
73.354730070637
 20
-24.12540079149469
 10
73.354730070637
 20
-24.12540079149469
 10
73.354730070637
 20
-28.8753261917829
 10
73.354730070637
 20
-28.8753261917829
 97
        0
 75
     2
 76
     1
 98
        0
  0
SPLINE
  5
54
330
3C
100
AcDbEntity
  8
Layer 1
370
     0
100
AcDbSpline
210
0.0
220
0.0
230
1.0
 70
    11
 71
     3
 72
    44
 73
    40
 74
     0
 42
0.0000000001
 43
0.0000000001
 40
0.0
 40
0.0
 40
0.0
 40
0.0
 40
1.0
 40
1.0
 40
1.0
 40
2.0
 40
2.0
 40
2.0
 40
3.0
 40
3.0
 40
3.0
 40
4.0
 40
4.0
 40
4.0
 40
5.0
 40
5.0
 40
5.0
 40
6.0
 40
6.0
 40
6.0
 40
7.0
 40
7.0
 40
7.0
 40
8.0
 40
8.0
 40
8.0
 40
9.0
 40
9.0
 40
9.0
 40
10.0
 40
10.0
 40
10.0
 40
11.0
 40
11.0
 40
11.0
 40
12.0
 40
12.0
 40
12.0
 40
13.0
 40
13.0
 40
13.0
 40
13.0
 10
47.92772052838265
 20
-28.00823010910037
 30
0.0
 10
47.00887911151167
 20
-28.00823010910037
 30
0.0
 10
46.34879881653779
 20
-28.28001369193173
 30
0.0
 10
45.80505939610082
 20
-29.08254868522068
 30
0.0
 10
45.80505939610082
 20
-29.08254868522068
 30
0.0
 10
45.77929008187115
 20
-29.08254868522068
 30
0.0
 10
45.77929008187115
 20
-29.08254868522068
 30
0.0
 10
45.77929008187115
 20
-29.08254868522068
 30
0.0
 10
45.77929008187115
 20
-28.22823390678843
 30
0.0
 10
45.77929008187115
 20
-28.22823390678843
 30
0.0
 10
45.77929008187115
 20
-28.22823390678843
 30
0.0
 10
43.42377494574127
 20
-28.22823390678843
 30
0.0
 10
43.42377494574127
 20
-28.22823390678843
 30
0.0
 10
43.42377494574127
 20
-28.22823390678843
 30
0.0
 10
43.42377494574127
 20
-34.86784585716845
 30
0.0
 10
43.42377494574127
 20
-34.86784585716845
 30
0.0
 10
43.42377494574127
 20
-34.86784585716845
 30
0.0
 10
45.77929008187115
 20
-34.86784585716845
 30
0.0
 10
45.77929008187115
 20
-34.86784585716845
 30
0.0
 10
45.77929008187115
 20
-34.86784585716845
 30
0.0
 10
45.77929008187115
 20
-31.425230840668
 30
0.0
 10
45.77929008187115
 20
-31.425230840668
 30
0.0
 10
45.77929008187115
 20
-30.59692653314938
 30
0.0
 10
46.05107366470251
 20
-29.88489419825794
 30
0.0
 10
47.00887911151167
 20
-29.88489419825794
 30
0.0
 10
48.17352809125523
 20
-29.88489419825794
 30
0.0
 10
48.07003742287832
 20
-30.99800454954216
 30
0.0
 10
48.07003742287832
 20
-31.63210882455725
 30
0.0
 10
48.07003742287832
 20
-31.63210882455725
 30
0.0
 10
48.07003742287832
 20
-34.86784585716845
 30
0.0
 10
48.07003742287832
 20
-34.86784585716845
 30
0.0
 10
48.07003742287832
 20
-34.86784585716845
 30
0.0
 10
50.4256903628276
 20
-34.86784585716845
 30
0.0
 10
50.4256903628276
 20
-34.86784585716845
 30
0.0
 10
50.4256903628276
 20
-34.86784585716845
 30
0.0
 10
50.4256903628276
 20
-30.76501274187472
 30
0.0
 10
50.4256903628276
 20
-30.76501274187472
 30
0.0
 10
50.4256903628276
 20
-29.13429401940913
 30
0.0
 10
49.71386473366528
 20
-28.00823010910037
 30
0.0
 10
47.92772052838265
 20
-28.00823010910037
 30
0.0
  0
HATCH
  5
55
330
3C
100
AcDbEntity
  8
Layer 1
 62
   230
420
 15466635
100
AcDbHatch
 10
0.0
 20
0.0
 30
0.0
210
0.0
220
0.0
230
1.0
  2
SOLID
 70
     1
 71
     0
 91
        1
 92
        1
 93
        1
 72
     4
 94
        3
 73
     0
 74
     1
 95
       44
 96
       40
 40
0.0
 40
0.0
 40
0.0
 40
0.0
 40
1.0
 40
1.0
 40
1.0
 40
2.0
 40
2.0
 40
2.0
 40
3.0
 40
3.0
 40
3.0
 40
4.0
 40
4.0
 40
4.0
 40
5.0
 40
5.0
 40
5.0
 40
6.0
 40
6.0
 40
6.0
 40
7.0
 40
7.0
 40
7.0
 40
8.0
 40
8.0
 40
8.0
 40
9.0
 40
9.0
 40
9.0
 40
10.0
 40
10.0
 40
10.0
 40
11.0
 40
11.0
 40
11.0
 40
12.0
 40
12.0
 40
12.0
 40
13.0
 40
13.0
 40
13.0
 40
13.0
 10
47.92772052838265
 20
-28.00823010910037
 10
47.00887911151167
 20
-28.00823010910037
 10
46.34879881653779
 20
-28.28001369193173
 10
45.80505939610082
 20
-29.08254868522068
 10
45.80505939610082
 20
-29.08254868522068
 10
45.77929008187115
 20
-29.08254868522068
 10
45.77929008187115
 20
-29.08254868522068
 10
45.77929008187115
 20
-29.08254868522068
 10
45.77929008187115
 20
-28.22823390678843
 10
45.77929008187115
 20
-28.22823390678843
 10
45.77929008187115
 20
-28.22823390678843
 10
43.42377494574127
 20
-28.22823390678843
 10
43.42377494574127
 20
-28.22823390678843
 10
43.42377494574127
 20
-28.22823390678843
 10
43.42377494574127
 20
-34.86784585716845
 10
43.42377494574127
 20
-34.86784585716845
 10
43.42377494574127
 20
-34.86784585716845
 10
45.77929008187115
 20
-34.86784585716845
 10
45.77929008187115
 20
-34.86784585716845
 10
45.77929008187115
 20
-34.86784585716845
 10
45.77929008187115
 20
-31.425230840668
 10
45.77929008187115
 20
-31.425230840668
 10
45.77929008187115
 20
-30.59692653314938
 10
46.05107366470251
 20
-29.88489419825794
 10
47.00887911151167
 20
-29.88489419825794
 10
48.17352809125523
 20
-29.88489419825794
 10
48.07003742287832
 20
-30.99800454954216
 10
48.07003742287832
 20
-31.63210882455725
 10
48.07003742287832
 20
-31.63210882455725
 10
48.07003742287832
 20
-34.86784585716845
 10
48.07003742287832
 20
-34.86784585716845
 10
48.07003742287832
 20
-34.86784585716845
 10
50.4256903628276
 20
-34.86784585716845
 10
50.4256903628276
 20
-34.86784585716845
 10
50.4256903628276
 20
-34.86784585716845
 10
50.4256903628276
 20
-30.76501274187472
 10
50.4256903628276
 20
-30.76501274187472
 10
50.4256903628276
 20
-29.13429401940913
 10
49.71386473366528
 20
-28.00823010910037
 10
47.92772052838265
 20
-28.00823010910037
 97
        0
 75
     2
 76
     1
 98
        0
  0
SPLINE
  5
56
330
3C
100
AcDbEntity
  8
Layer 1
370
     0
100
AcDbSpline
210
0.0
220
0.0
230
1.0
 70
    11
 71
     3
 72
    17
 73
    13
 74
     0
 42
0.0000000001
 43
0.0000000001
 40
0.0
 40
0.0
 40
0.0
 40
0.0
 40
1.0
 40
1.0
 40
1.0
 40
2.0
 40
2.0
 40
2.0
 40
3.0
 40
3.0
 40
3.0
 40
4.0
 40
4.0
 40
4.0
 40
4.0
 10
78.38539630201822
 20
-32.17385008961278
 30
0.0
 10
77.52835989815263
 20
-32.17385008961278
 30
0.0
 10
76.84285479849761
 20
-32.85932073831295
 30
0.0
 10
76.84285479849761
 20
-33.71635714217854
 30
0.0
 10
76.84285479849761
 20
-34.55985432078712
 30
0.0
 10
77.52835989815263
 20
-35.25851968519579
 30
0.0
 10
78.38539630201822
 20
-35.25851968519579
 30
0.0
 10
79.24205374538046
 20
-35.25851968519579
 30
0.0
 10
79.92755884503546
 20
-34.55985432078712
 30
0.0
 10
79.92755884503546
 20
-33.71635714217854
 30
0.0
 10
79.92755884503546
 20
-32.85932073831295
 30
0.0
 10
79.24205374538046
 20
-32.17385008961278
 30
0.0
 10
78.38539630201822
 20
-32.17385008961278
 30
0.0
  0
HATCH
  5
57
330
3C
100
AcDbEntity
  8
Layer 1
 62
   230
420
 15466635
100
AcDbHatch
 10
0.0
 20
0.0
 30
0.0
210
0.0
220
0.0
230
1.0
  2
SOLID
 70
     1
 71
     0
 91
        1
 92
        1
 93
        1
 72
     4
 94
        3
 73
     0
 74
     1
 95
       17
 96
       13
 40
0.0
 40
0.0
 40
0.0
 40
0.0
 40
1.0
 40
1.0
 40
1.0
 40
2.0
 40
2.0
 40
2.0
 40
3.0
 40
3.0
 40
3.0
 40
4.0
 40
4.0
 40
4.0
 40
4.0
 10
78.38539630201822
 20
-32.17385008961278
 10
77.52835989815263
 20
-32.17385008961278
 10
76.84285479849761
 20
-32.85932073831295
 10
76.84285479849761
 20
-33.71635714217854
 10
76.84285479849761
 20
-34.55985432078712
 10
77.52835989815263
 20
-35.25851968519579
 10
78.38539630201822
 20
-35.25851968519579
 10
79.24205374538046
 20
-35.25851968519579
 10
79.92755884503546
 20
-34.55985432078712
 10
79.92755884503546
 20
-33.71635714217854
 10
79.92755884503546
 20
-32.85932073831295
 10
79.24205374538046
 20
-32.17385008961278
 10
78.38539630201822
 20
-32.17385008961278
 97
        0
 75
     2
 76
     1
 98
        0
  0
SPLINE
  5
58
330
3C
100
AcDbEntity
  8
Layer 1
370
     0
100
AcDbSpline
210
0.0
220
0.0
230
1.0
 70
    11
 71
     3
 72
    20
 73
    16
 74
     0
 42
0.0000000001
 43
0.0000000001
 40
0.0
 40
0.0
 40
0.0
 40
0.0
 40
1.0
 40
1.0
 40
1.0
 40
2.0
 40
2.0
 40
2.0
 40
3.0
 40
3.0
 40
3.0
 40
4.0
 40
4.0
 40
4.0
 40
5.0
 40
5.0
 40
5.0
 40
5.0
 10
63.99495685249084
 20
-33.37984021517934
 30
0.0
 10
63.99495685249084
 20
-33.37984021517934
 30
0.0
 10
63.99495685249084
 20
-35.07196776466951
 30
0.0
 10
63.99495685249084
 20
-35.07196776466951
 30
0.0
 10
64.63543455415363
 20
-35.02476995652158
 30
0.0
 10
65.25289901797497
 20
-34.84920789059325
 30
0.0
 10
65.76790634206496
 20
-34.53132893016925
 30
0.0
 10
66.37624130285037
 20
-34.15602022800613
 30
0.0
 10
66.84222491818527
 20
-33.58651149333948
 30
0.0
 10
67.02329913689
 20
-32.80995252000932
 30
0.0
 10
67.02329913689
 20
-32.80995252000932
 30
0.0
 10
64.75835556106735
 20
-32.80995252000932
 30
0.0
 10
64.75835556106735
 20
-32.80995252000932
 30
0.0
 10
64.56667044826806
 20
-33.13585855291395
 30
0.0
 10
64.3164876141292
 20
-33.310318188287
 30
0.0
 10
63.99495685249084
 20
-33.37984021517934
 30
0.0
  0
HATCH
  5
59
330
3C
100
AcDbEntity
  8
Layer 1
 62
   230
420
 15466635
100
AcDbHatch
 10
0.0
 20
0.0
 30
0.0
210
0.0
220
0.0
230
1.0
  2
SOLID
 70
     1
 71
     0
 91
        1
 92
        1
 93
        1
 72
     4
 94
        3
 73
     0
 74
     1
 95
       20
 96
       16
 40
0.0
 40
0.0
 40
0.0
 40
0.0
 40
1.0
 40
1.0
 40
1.0
 40
2.0
 40
2.0
 40
2.0
 40
3.0
 40
3.0
 40
3.0
 40
4.0
 40
4.0
 40
4.0
 40
5.0
 40
5.0
 40
5.0
 40
5.0
 10
63.99495685249084
 20
-33.37984021517934
 10
63.99495685249084
 20
-33.37984021517934
 10
63.99495685249084
 20
-35.07196776466951
 10
63.99495685249084
 20
-35.07196776466951
 10
64.63543455415363
 20
-35.02476995652158
 10
65.25289901797497
 20
-34.84920789059325
 10
65.76790634206496
 20
-34.53132893016925
 10
66.37624130285037
 20
-34.15602022800613
 10
66.84222491818527
 20
-33.58651149333948
 10
67.02329913689
 20
-32.80995252000932
 10
67.02329913689
 20
-32.80995252000932
 10
64.75835556106735
 20
-32.80995252000932
 10
64.75835556106735
 20
-32.80995252000932
 10
64.56667044826806
 20
-33.13585855291395
 10
64.3164876141292
 20
-33.310318188287
 10
63.99495685249084
 20
-33.37984021517934
 97
        0
 75
     2
 76
     1
 98
        0
  0
SPLINE
  5
5A
330
3C
100
AcDbEntity
  8
Layer 1
370
     0
100
AcDbSpline
210
0.0
220
0.0
230
1.0
 70
    11
 71
     3
 72
    29
 73
    25
 74
     0
 42
0.0000000001
 43
0.0000000001
 40
0.0
 40
0.0
 40
0.0
 40
0.0
 40
1.0
 40
1.0
 40
1.0
 40
2.0
 40
2.0
 40
2.0
 40
3.0
 40
3.0
 40
3.0
 40
4.0
 40
4.0
 40
4.0
 40
5.0
 40
5.0
 40
5.0
 40
6.0
 40
6.0
 40
6.0
 40
7.0
 40
7.0
 40
7.0
 40
8.0
 40
8.0
 40
8.0
 40
8.0
 10
67.97032143483032
 20
-31.54139946043062
 30
0.0
 10
67.97032143483032
 20
-33.44419459884381
 30
0.0
 10
69.35518091799106
 20
-35.0877118510371
 30
0.0
 10
71.32239934197843
 20
-35.0877118510371
 30
0.0
 10
71.37727971305846
 20
-35.0877118510371
 30
0.0
 10
71.43212563318363
 20
-35.08219969826069
 30
0.0
 10
71.48738496476703
 20
-35.07889240659486
 30
0.0
 10
71.48738496476703
 20
-35.07889240659486
 30
0.0
 10
71.48738496476703
 20
-32.99281818836638
 30
0.0
 10
71.48738496476703
 20
-32.99281818836638
 30
0.0
 10
70.7960232027871
 20
-32.82748805602924
 30
0.0
 10
70.40355792510744
 20
-32.2601497315183
 30
0.0
 10
70.40355792510744
 20
-31.55455972518427
 30
0.0
 10
70.40355792510744
 20
-30.87070827136218
 30
0.0
 10
70.7960232027871
 20
-30.27958156252559
 30
0.0
 10
71.48738496476703
 20
-30.10618990675296
 30
0.0
 10
71.48738496476703
 20
-30.10618990675296
 30
0.0
 10
71.48738496476703
 20
-28.01572319178079
 30
0.0
 10
71.48738496476703
 20
-28.01572319178079
 30
0.0
 10
71.42371960019962
 20
-28.0113306950371
 30
0.0
 10
71.36008868658706
 20
-28.00823010910037
 30
0.0
 10
71.29642332201963
 20
-28.00823010910037
 30
0.0
 10
69.32923934898713
 20
-28.00823010910037
 30
0.0
 10
67.97032143483032
 20
-29.63908663538536
 30
0.0
 10
67.97032143483032
 20
-31.54139946043062
 30
0.0
  0
HATCH
  5
5B
330
3C
100
AcDbEntity
  8
Layer 1
 62
   230
420
 15466635
100
AcDbHatch
 10
0.0
 20
0.0
 30
0.0
210
0.0
220
0.0
230
1.0
  2
SOLID
 70
     1
 71
     0
 91
        1
 92
        1
 93
        1
 72
     4
 94
        3
 73
     0
 74
     1
 95
       29
 96
       25
 40
0.0
 40
0.0
 40
0.0
 40
0.0
 40
1.0
 40
1.0
 40
1.0
 40
2.0
 40
2.0
 40
2.0
 40
3.0
 40
3.0
 40
3.0
 40
4.0
 40
4.0
 40
4.0
 40
5.0
 40
5.0
 40
5.0
 40
6.0
 40
6.0
 40
6.0
 40
7.0
 40
7.0
 40
7.0
 40
8.0
 40
8.0
 40
8.0
 40
8.0
 10
67.97032143483032
 20
-31.54139946043062
 10
67.97032143483032
 20
-33.44419459884381
 10
69.35518091799106
 20
-35.0877118510371
 10
71.32239934197843
 20
-35.0877118510371
 10
71.37727971305846
 20
-35.0877118510371
 10
71.43212563318363
 20
-35.08219969826069
 10
71.48738496476703
 20
-35.07889240659486
 10
71.48738496476703
 20
-35.07889240659486
 10
71.48738496476703
 20
-32.99281818836638
 10
71.48738496476703
 20
-32.99281818836638
 10
70.7960232027871
 20
-32.82748805602924
 10
70.40355792510744
 20
-32.2601497315183
 10
70.40355792510744
 20
-31.55455972518427
 10
70.40355792510744
 20
-30.87070827136218
 10
70.7960232027871
 20
-30.27958156252559
 10
71.48738496476703
 20
-30.10618990675296
 10
71.48738496476703
 20
-30.10618990675296
 10
71.48738496476703
 20
-28.01572319178079
 10
71.48738496476703
 20
-28.01572319178079
 10
71.42371960019962
 20
-28.0113306950371
 10
71.36008868658706
 20
-28.00823010910037
 10
71.29642332201963
 20
-28.00823010910037
 10
69.32923934898713
 20
-28.00823010910037
 10
67.97032143483032
 20
-29.63908663538536
 10
67.97032143483032
 20
-31.54139946043062
 97
        0
 75
     2
 76
     1
 98
        0
  0
SPLINE
  5
5C
330
3C
100
AcDbEntity
  8
Layer 1
370
     0
100
AcDbSpline
210
0.0
220
0.0
230
1.0
 70
    11
 71
     3
 72
    29
 73
    25
 74
     0
 42
0.0000000001
 43
0.0000000001
 40
0.0
 40
0.0
 40
0.0
 40
0.0
 40
1.0
 40
1.0
 40
1.0
 40
2.0
 40
2.0
 40
2.0
 40
3.0
 40
3.0
 40
3.0
 40
4.0
 40
4.0
 40
4.0
 40
5.0
 40
5.0
 40
5.0
 40
6.0
 40
6.0
 40
6.0
 40
7.0
 40
7.0
 40
7.0
 40
8.0
 40
8.0
 40
8.0
 40
8.0
 10
51.24944714430569
 20
-31.54139946043062
 30
0.0
 10
51.24944714430569
 20
-33.44419459884381
 30
0.0
 10
52.63430662746642
 20
-35.0877118510371
 30
0.0
 10
54.60152505145378
 20
-35.0877118510371
 30
0.0
 10
54.65640542253381
 20
-35.0877118510371
 30
0.0
 10
54.71125134265899
 20
-35.08219969826069
 30
0.0
 10
54.7665106742424
 20
-35.07889240659486
 30
0.0
 10
54.7665106742424
 20
-35.07889240659486
 30
0.0
 10
54.7665106742424
 20
-32.99281818836638
 30
0.0
 10
54.7665106742424
 20
-32.99281818836638
 30
0.0
 10
54.07514891226246
 20
-32.82748805602924
 30
0.0
 10
53.68268363458279
 20
-32.2601497315183
 30
0.0
 10
53.68268363458279
 20
-31.55455972518427
 30
0.0
 10
53.68268363458279
 20
-30.87070827136218
 30
0.0
 10
54.07514891226246
 20
-30.27958156252559
 30
0.0
 10
54.7665106742424
 20
-30.10618990675296
 30
0.0
 10
54.7665106742424
 20
-30.10618990675296
 30
0.0
 10
54.7665106742424
 20
-28.01572319178079
 30
0.0
 10
54.7665106742424
 20
-28.01572319178079
 30
0.0
 10
54.70284530967498
 20
-28.0113306950371
 30
0.0
 10
54.63883543555904
 20
-28.00823010910037
 30
0.0
 10
54.575549031495
 20
-28.00823010910037
 30
0.0
 10
52.60836505846249
 20
-28.00823010910037
 30
0.0
 10
51.24944714430569
 20
-29.63908663538536
 30
0.0
 10
51.24944714430569
 20
-31.54139946043062
 30
0.0
  0
HATCH
  5
5D
330
3C
100
AcDbEntity
  8
Layer 1
 62
   230
420
 15466635
100
AcDbHatch
 10
0.0
 20
0.0
 30
0.0
210
0.0
220
0.0
230
1.0
  2
SOLID
 70
     1
 71
     0
 91
        1
 92
        1
 93
        1
 72
     4
 94
        3
 73
     0
 74
     1
 95
       29
 96
       25
 40
0.0
 40
0.0
 40
0.0
 40
0.0
 40
1.0
 40
1.0
 40
1.0
 40
2.0
 40
2.0
 40
2.0
 40
3.0
 40
3.0
 40
3.0
 40
4.0
 40
4.0
 40
4.0
 40
5.0
 40
5.0
 40
5.0
 40
6.0
 40
6.0
 40
6.0
 40
7.0
 40
7.0
 40
7.0
 40
8.0
 40
8.0
 40
8.0
 40
8.0
 10
51.24944714430569
 20
-31.54139946043062
 10
51.24944714430569
 20
-33.44419459884381
 10
52.63430662746642
 20
-35.0877118510371
 10
54.60152505145378
 20
-35.0877118510371
 10
54.65640542253381
 20
-35.0877118510371
 10
54.71125134265899
 20
-35.08219969826069
 10
54.7665106742424
 20
-35.07889240659486
 10
54.7665106742424
 20
-35.07889240659486
 10
54.7665106742424
 20
-32.99281818836638
 10
54.7665106742424
 20
-32.99281818836638
 10
54.07514891226246
 20
-32.82748805602924
 10
53.68268363458279
 20
-32.2601497315183
 10
53.68268363458279
 20
-31.55455972518427
 10
53.68268363458279
 20
-30.87070827136218
 10
54.07514891226246
 20
-30.27958156252559
 10
54.7665106742424
 20
-30.10618990675296
 10
54.7665106742424
 20
-30.10618990675296
 10
54.7665106742424
 20
-28.01572319178079
 10
54.7665106742424
 20
-28.01572319178079
 10
54.70284530967498
 20
-28.0113306950371
 10
54.63883543555904
 20
-28.00823010910037
 10
54.575549031495
 20
-28.00823010910037
 10
52.60836505846249
 20
-28.00823010910037
 10
51.24944714430569
 20
-29.63908663538536
 10
51.24944714430569
 20
-31.54139946043062
 97
        0
 75
     2
 76
     1
 98
        0
  0
SPLINE
  5
5E
330
3C
100
AcDbEntity
  8
Layer 1
370
     0
100
AcDbSpline
210
0.0
220
0.0
230
1.0
 70
    11
 71
     3
 72
    41
 73
    37
 74
     0
 42
0.0000000001
 43
0.0000000001
 40
0.0
 40
0.0
 40
0.0
 40
0.0
 40
1.0
 40
1.0
 40
1.0
 40
2.0
 40
2.0
 40
2.0
 40
3.0
 40
3.0
 40
3.0
 40
4.0
 40
4.0
 40
4.0
 40
5.0
 40
5.0
 40
5.0
 40
6.0
 40
6.0
 40
6.0
 40
7.0
 40
7.0
 40
7.0
 40
8.0
 40
8.0
 40
8.0
 40
9.0
 40
9.0
 40
9.0
 40
10.0
 40
10.0
 40
10.0
 40
11.0
 40
11.0
 40
11.0
 40
12.0
 40
12.0
 40
12.0
 40
12.0
 10
56.63347681960899
 20
-28.8753261917829
 30
0.0
 10
56.36975476021311
 20
-28.56294215865787
 30
0.0
 10
56.01566784623913
 20
-28.33816690372275
 30
0.0
 10
55.62681991881899
 20
-28.19550549967855
 30
0.0
 10
55.62681991881899
 20
-28.19550549967855
 30
0.0
 10
55.62681991881899
 20
-30.1060176519787
 30
0.0
 10
55.62681991881899
 20
-30.1060176519787
 30
0.0
 10
56.31852619034745
 20
-30.27920260202221
 30
0.0
 10
56.71102591898196
 20
-30.87053601658792
 30
0.0
 10
56.71102591898196
 20
-31.55455972518427
 30
0.0
 10
56.71102591898196
 20
-32.2601497315183
 30
0.0
 10
56.31852619034745
 20
-32.82786701653261
 30
0.0
 10
55.62681991881899
 20
-32.99281818836638
 30
0.0
 10
55.62681991881899
 20
-32.99281818836638
 30
0.0
 10
55.62681991881899
 20
-34.90188340056272
 30
0.0
 10
55.62681991881899
 20
-34.90188340056272
 30
0.0
 10
56.02662324988223
 20
-34.74788763237206
 30
0.0
 10
56.37888426324903
 20
-34.49474201611589
 30
0.0
 10
56.60787976015358
 20
-34.13004420804734
 30
0.0
 10
56.60787976015358
 20
-34.13004420804734
 30
0.0
 10
56.63347681960899
 20
-34.13004420804734
 30
0.0
 10
56.63347681960899
 20
-34.13004420804734
 30
0.0
 10
56.63347681960899
 20
-34.13004420804734
 30
0.0
 10
56.63347681960899
 20
-34.86784585716845
 30
0.0
 10
56.63347681960899
 20
-34.86784585716845
 30
0.0
 10
56.63347681960899
 20
-34.86784585716845
 30
0.0
 10
58.98912975955827
 20
-34.86784585716845
 30
0.0
 10
58.98912975955827
 20
-34.86784585716845
 30
0.0
 10
58.98912975955827
 20
-34.86784585716845
 30
0.0
 10
58.98912975955827
 20
-24.12540079149469
 30
0.0
 10
58.98912975955827
 20
-24.12540079149469
 30
0.0
 10
58.98912975955827
 20
-24.12540079149469
 30
0.0
 10
56.63347681960899
 20
-24.12540079149469
 30
0.0
 10
56.63347681960899
 20
-24.12540079149469
 30
0.0
 10
56.63347681960899
 20
-24.12540079149469
 30
0.0
 10
56.63347681960899
 20
-28.8753261917829
 30
0.0
 10
56.63347681960899
 20
-28.8753261917829
 30
0.0
  0
HATCH
  5
5F
330
3C
100
AcDbEntity
  8
Layer 1
 62
   230
420
 15466635
100
AcDbHatch
 10
0.0
 20
0.0
 30
0.0
210
0.0
220
0.0
230
1.0
  2
SOLID
 70
     1
 71
     0
 91
        1
 92
        1
 93
        1
 72
     4
 94
        3
 73
     0
 74
     1
 95
       41
 96
       37
 40
0.0
 40
0.0
 40
0.0
 40
0.0
 40
1.0
 40
1.0
 40
1.0
 40
2.0
 40
2.0
 40
2.0
 40
3.0
 40
3.0
 40
3.0
 40
4.0
 40
4.0
 40
4.0
 40
5.0
 40
5.0
 40
5.0
 40
6.0
 40
6.0
 40
6.0
 40
7.0
 40
7.0
 40
7.0
 40
8.0
 40
8.0
 40
8.0
 40
9.0
 40
9.0
 40
9.0
 40
10.0
 40
10.0
 40
10.0
 40
11.0
 40
11.0
 40
11.0
 40
12.0
 40
12.0
 40
12.0
 40
12.0
 10
56.63347681960899
 20
-28.8753261917829
 10
56.36975476021311
 20
-28.56294215865787
 10
56.01566784623913
 20
-28.33816690372275
 10
55.62681991881899
 20
-28.19550549967855
 10
55.62681991881899
 20
-28.19550549967855
 10
55.62681991881899
 20
-30.1060176519787
 10
55.62681991881899
 20
-30.1060176519787
 10
56.31852619034745
 20
-30.27920260202221
 10
56.71102591898196
 20
-30.87053601658792
 10
56.71102591898196
 20
-31.55455972518427
 10
56.71102591898196
 20
-32.2601497315183
 10
56.31852619034745
 20
-32.82786701653261
 10
55.62681991881899
 20
-32.99281818836638
 10
55.62681991881899
 20
-32.99281818836638
 10
55.62681991881899
 20
-34.90188340056272
 10
55.62681991881899
 20
-34.90188340056272
 10
56.02662324988223
 20
-34.74788763237206
 10
56.37888426324903
 20
-34.49474201611589
 10
56.60787976015358
 20
-34.13004420804734
 10
56.60787976015358
 20
-34.13004420804734
 10
56.63347681960899
 20
-34.13004420804734
 10
56.63347681960899
 20
-34.13004420804734
 10
56.63347681960899
 20
-34.13004420804734
 10
56.63347681960899
 20
-34.86784585716845
 10
56.63347681960899
 20
-34.86784585716845
 10
56.63347681960899
 20
-34.86784585716845
 10
58.98912975955827
 20
-34.86784585716845
 10
58.98912975955827
 20
-34.86784585716845
 10
58.98912975955827
 20
-34.86784585716845
 10
58.98912975955827
 20
-24.12540079149469
 10
58.98912975955827
 20
-24.12540079149469
 10
58.98912975955827
 20
-24.12540079149469
 10
56.63347681960899
 20
-24.12540079149469
 10
56.63347681960899
 20
-24.12540079149469
 10
56.63347681960899
 20
-24.12540079149469
 10
56.63347681960899
 20
-28.8753261917829
 10
56.63347681960899
 20
-28.8753261917829
 97
        0
 75
     2
 76
     1
 98
        0
  0
SPLINE
  5
60
330
3C
100
AcDbEntity
  8
Layer 1
370
     0
100
AcDbSpline
210
0.0
220
0.0
230
1.0
 70
    11
 71
     3
 72
    32
 73
    28
 74
     0
 42
0.0000000001
 43
0.0000000001
 40
0.0
 40
0.0
 40
0.0
 40
0.0
 40
1.0
 40
1.0
 40
1.0
 40
2.0
 40
2.0
 40
2.0
 40
3.0
 40
3.0
 40
3.0
 40
4.0
 40
4.0
 40
4.0
 40
5.0
 40
5.0
 40
5.0
 40
6.0
 40
6.0
 40
6.0
 40
7.0
 40
7.0
 40
7.0
 40
8.0
 40
8.0
 40
8.0
 40
9.0
 40
9.0
 40
9.0
 40
9.0
 10
59.80120766734136
 20
-31.55455972518427
 30
0.0
 10
59.80120766734136
 20
-33.6633026717057
 30
0.0
 10
61.19667804459666
 20
-34.87845675126302
 30
0.0
 10
63.1346131569594
 20
-35.05915200946438
 30
0.0
 10
63.1346131569594
 20
-35.05915200946438
 30
0.0
 10
63.1346131569594
 20
-33.35823946648683
 30
0.0
 10
63.1346131569594
 20
-33.35823946648683
 30
0.0
 10
62.49265406423795
 20
-33.2013153671337
 30
0.0
 10
62.15686060729064
 20
-32.71886419537931
 30
0.0
 10
62.15686060729064
 20
-31.94302869210104
 30
0.0
 10
62.15686060729064
 20
-31.94302869210104
 30
0.0
 10
63.1346131569594
 20
-31.94302869210104
 30
0.0
 10
63.1346131569594
 20
-31.94302869210104
 30
0.0
 10
63.1346131569594
 20
-31.94302869210104
 30
0.0
 10
63.1346131569594
 20
-30.58373181744087
 30
0.0
 10
63.1346131569594
 20
-30.58373181744087
 30
0.0
 10
63.1346131569594
 20
-30.58373181744087
 30
0.0
 10
62.19565238245455
 20
-30.58373181744087
 30
0.0
 10
62.19565238245455
 20
-30.58373181744087
 30
0.0
 10
62.30427624310448
 20
-30.05919880433416
 30
0.0
 10
62.66456432895191
 20
-29.72595471804594
 30
0.0
 10
63.1346131569594
 20
-29.59738375453642
 30
0.0
 10
63.1346131569594
 20
-29.59738375453642
 30
0.0
 10
63.1346131569594
 20
-28.02724703617895
 30
0.0
 10
63.1346131569594
 20
-28.02724703617895
 30
0.0
 10
61.15936766049141
 20
-28.16277709256868
 30
0.0
 10
59.80120766734136
 20
-29.46150918859816
 30
0.0
 10
59.80120766734136
 20
-31.55455972518427
 30
0.0
  0
HATCH
  5
61
330
3C
100
AcDbEntity
  8
Layer 1
 62
   230
420
 15466635
100
AcDbHatch
 10
0.0
 20
0.0
 30
0.0
210
0.0
220
0.0
230
1.0
  2
SOLID
 70
     1
 71
     0
 91
        1
 92
        1
 93
        1
 72
     4
 94
        3
 73
     0
 74
     1
 95
       32
 96
       28
 40
0.0
 40
0.0
 40
0.0
 40
0.0
 40
1.0
 40
1.0
 40
1.0
 40
2.0
 40
2.0
 40
2.0
 40
3.0
 40
3.0
 40
3.0
 40
4.0
 40
4.0
 40
4.0
 40
5.0
 40
5.0
 40
5.0
 40
6.0
 40
6.0
 40
6.0
 40
7.0
 40
7.0
 40
7.0
 40
8.0
 40
8.0
 40
8.0
 40
9.0
 40
9.0
 40
9.0
 40
9.0
 10
59.80120766734136
 20
-31.55455972518427
 10
59.80120766734136
 20
-33.6633026717057
 10
61.19667804459666
 20
-34.87845675126302
 10
63.1346131569594
 20
-35.05915200946438
 10
63.1346131569594
 20
-35.05915200946438
 10
63.1346131569594
 20
-33.35823946648683
 10
63.1346131569594
 20
-33.35823946648683
 10
62.49265406423795
 20
-33.2013153671337
 10
62.15686060729064
 20
-32.71886419537931
 10
62.15686060729064
 20
-31.94302869210104
 10
62.15686060729064
 20
-31.94302869210104
 10
63.1346131569594
 20
-31.94302869210104
 10
63.1346131569594
 20
-31.94302869210104
 10
63.1346131569594
 20
-31.94302869210104
 10
63.1346131569594
 20
-30.58373181744087
 10
63.1346131569594
 20
-30.58373181744087
 10
63.1346131569594
 20
-30.58373181744087
 10
62.19565238245455
 20
-30.58373181744087
 10
62.19565238245455
 20
-30.58373181744087
 10
62.30427624310448
 20
-30.05919880433416
 10
62.66456432895191
 20
-29.72595471804594
 10
63.1346131569594
 20
-29.59738375453642
 10
63.1346131569594
 20
-29.59738375453642
 10
63.1346131569594
 20
-28.02724703617895
 10
63.1346131569594
 20
-28.02724703617895
 10
61.15936766049141
 20
-28.16277709256868
 10
59.80120766734136
 20
-29.46150918859816
 10
59.80120766734136
 20
-31.55455972518427
 97
        0
 75
     2
 76
     1
 98
        0
  0
ENDBLK
  5
3F
330
3C
100
AcDbEntity
  8
0
100
AcDbBlockEnd
  0
ENDSEC
  0
SECTION
  2
ENTITIES
  0
INSERT
  5
3D
330
1F
100
AcDbEntity
  8
Layer 1
100
AcDbBlockReference
  2
block 2
 10
0.0
 20
0.0
 30
0.0
  0
ENDSEC
  0
SECTION
  2
OBJECTS
  0
DICTIONARY
  5
C
330
0
100
AcDbDictionary
281
     1
  3
ACAD_GROUP
350
D
  3
ACAD_LAYOUT
350
1A
  3
ACAD_MLINESTYLE
350
17
  3
ACAD_PLOTSETTINGS
350
19
  3
ACAD_PLOTSTYLENAME
350
E
  3
ACAD_TABLESTYLE
350
63
  3
ACAD_VISUALSTYLE
350
2A
  0
DICTIONARY
  5
D
102
{ACAD_REACTORS
330
C
102
}
330
C
100
AcDbDictionary
281
     1
  0
DICTIONARY
  5
1A
102
{ACAD_REACTORS
330
C
102
}
330
C
100
AcDbDictionary
281
     1
  3
Layout1
350
1E
  3
Layout2
350
26
  3
Model
350
22
  0
DICTIONARY
  5
17
102
{ACAD_REACTORS
330
C
102
}
330
C
100
AcDbDictionary
281
     1
  3
Standard
350
18
  0
DICTIONARY
  5
19
102
{ACAD_REACTORS
330
C
102
}
330
C
100
AcDbDictionary
281
     1
  0
ACDBDICTIONARYWDFLT
  5
E
102
{ACAD_REACTORS
330
C
102
}
330
C
100
AcDbDictionary
281
     1
  3
Normal
350
F
100
AcDbDictionaryWithDefault
340
F
  0
DICTIONARY
  5
63
102
{ACAD_REACTORS
330
C
102
}
330
C
100
AcDbDictionary
281
     1
  0
DICTIONARY
  5
2A
102
{ACAD_REACTORS
330
C
102
}
330
C
100
AcDbDictionary
281
     1
  3
2dWireframe
350
2F
  3
3D Hidden
350
31
  3
3dWireframe
350
30
  3
Basic
350
32
  3
Brighten
350
36
  3
ColorChange
350
3A
  3
Conceptual
350
34
  3
Dim
350
35
  3
Facepattern
350
39
  3
Flat
350
2B
  3
FlatWithEdges
350
2C
  3
Gouraud
350
2D
  3
GouraudWithEdges
350
2E
  3
Linepattern
350
38
  3
Realistic
350
33
  3
Thicken
350
37
  0
LAYOUT
  5
1E
102
{ACAD_REACTORS
330
1A
102
}
330
1A
100
AcDbPlotSettings
  1

  2
none_device
  4

  6

 40
0.0
 41
0.0
 42
0.0
 43
0.0
 44
0.0
 45
0.0
 46
0.0
 47
0.0
 48
0.0
 49
0.0
140
0.0
141
0.0
142
1.0
143
1.0
 70
   688
 72
     0
 73
     0
 74
     5
  7

 75
    16
 76
     0
 77
     2
 78
   300
147
1.0
148
0.0
149
0.0
100
AcDbLayout
  1
Layout1
 70
     1
 71
     1
 10
0.0
 20
0.0
 11
12.0
 21
9.0
 12
0.0
 22
0.0
 32
0.0
 14
1.000000000000000E+20
 24
1.000000000000000E+20
 34
1.000000000000000E+20
 15
-1.000000000000000E+20
 25
-1.000000000000000E+20
 35
-1.000000000000000E+20
146
0.0
 13
0.0
 23
0.0
 33
0.0
 16
1.0
 26
0.0
 36
0.0
 17
0.0
 27
1.0
 37
0.0
 76
     0
330
1B
  0
LAYOUT
  5
26
102
{ACAD_REACTORS
330
1A
102
}
330
1A
100
AcDbPlotSettings
  1

  2
none_device
  4

  6

 40
0.0
 41
0.0
 42
0.0
 43
0.0
 44
0.0
 45
0.0
 46
0.0
 47
0.0
 48
0.0
 49
0.0
140
0.0
141
0.0
142
1.0
143
1.0
 70
   688
 72
     0
 73
     0
 74
     5
  7

 75
    16
 76
     0
 77
     2
 78
   300
147
1.0
148
0.0
149
0.0
100
AcDbLayout
  1
Layout2
 70
     1
 71
     2
 10
0.0
 20
0.0
 11
0.0
 21
0.0
 12
0.0
 22
0.0
 32
0.0
 14
0.0
 24
0.0
 34
0.0
 15
0.0
 25
0.0
 35
0.0
146
0.0
 13
0.0
 23
0.0
 33
0.0
 16
1.0
 26
0.0
 36
0.0
 17
0.0
 27
1.0
 37
0.0
 76
     0
330
23
  0
LAYOUT
  5
22
102
{ACAD_REACTORS
330
1A
102
}
330
1A
100
AcDbPlotSettings
  1

  2
none_device
  4

  6

 40
0.0
 41
0.0
 42
0.0
 43
0.0
 44
0.0
 45
0.0
 46
0.0
 47
0.0
 48
0.0
 49
0.0
140
0.0
141
0.0
142
1.0
143
1.0
 70
  1712
 72
     0
 73
     0
 74
     0
  7

 75
     0
 76
     0
 77
     2
 78
   300
147
1.0
148
0.0
149
0.0
100
AcDbLayout
  1
Model
 70
     1
 71
     0
 10
0.0
 20
0.0
 11
12.0
 21
9.0
 12
0.0
 22
0.0
 32
0.0
 14
1.000000000000000E+20
 24
1.000000000000000E+20
 34
1.000000000000000E+20
 15
-1.000000000000000E+20
 25
-1.000000000000000E+20
 35
-1.000000000000000E+20
146
0.0
 13
0.0
 23
0.0
 33
0.0
 16
1.0
 26
0.0
 36
0.0
 17
0.0
 27
1.0
 37
0.0
 76
     0
330
1F
331
29
  0
MLINESTYLE
  5
18
102
{ACAD_REACTORS
330
17
102
}
330
17
100
AcDbMlineStyle
  2
Standard
 70
     0
  3

 62
   256
 51
90.0
 52
90.0
 71
     2
 49
0.5
 62
   256
  6
BYLAYER
 49
-0.5
 62
   256
  6
BYLAYER
  0
ACDBPLACEHOLDER
  5
F
102
{ACAD_REACTORS
330
E
102
}
330
E
  0
VISUALSTYLE
  5
2F
102
{ACAD_REACTORS
330
2A
102
}
330
2A
100
AcDbVisualStyle
  2
2dWireframe
 70
     4
 71
     0
 72
     2
 73
     0
 90
        0
 40
-0.6
 41
-30.0
 62
     5
 63
     7
421
 16777215
 74
     1
 91
        4
 64
     7
 65
   257
 75
     1
175
     1
 42
1.0
 92
        0
 66
   257
 43
1.0
 76
     1
 77
     6
 78
     2
 67
     7
 79
     5
170
     0
171
     0
290
     0
174
     0
 93
        1
 44
0.0
173
     0
291
     0
 45
0.0
1001
ACAD
1000
AcDbSavedByObjectVersion
1070
     0
  0
VISUALSTYLE
  5
31
102
{ACAD_REACTORS
330
2A
102
}
330
2A
100
AcDbVisualStyle
  2
3D Hidden
 70
     6
 71
     1
 72
     2
 73
     2
 90
        0
 40
-0.6
 41
-30.0
 62
     5
 63
     7
421
 16777215
 74
     2
 91
        2
 64
     7
 65
   257
 75
     2
175
     1
 42
40.0
 92
        0
 66
   257
 43
1.0
 76
     1
 77
     6
 78
     2
 67
     7
 79
     3
170
     0
171
     0
290
     0
174
     0
 93
        1
 44
0.0
173
     0
291
     0
 45
0.0
1001
ACAD
1000
AcDbSavedByObjectVersion
1070
     0
  0
VISUALSTYLE
  5
30
102
{ACAD_REACTORS
330
2A
102
}
330
2A
100
AcDbVisualStyle
  2
3dWireframe
 70
     5
 71
     0
 72
     2
 73
     0
 90
        0
 40
-0.6
 41
-30.0
 62
     5
 63
     7
421
 16777215
 74
     1
 91
        4
 64
     7
 65
   257
 75
     1
175
     1
 42
1.0
 92
        0
 66
   257
 43
1.0
 76
     1
 77
     6
 78
     2
 67
     7
 79
     5
170
     0
171
     0
290
     0
174
     0
 93
        1
 44
0.0
173
     0
291
     0
 45
0.0
1001
ACAD
1000
AcDbSavedByObjectVersion
1070
     0
  0
VISUALSTYLE
  5
32
102
{ACAD_REACTORS
330
2A
102
}
330
2A
100
AcDbVisualStyle
  2
Basic
 70
     7
 71
     1
 72
     0
 73
     1
 90
        0
 40
-0.6
 41
-30.0
 62
     5
 63
     7
421
 16777215
 74
     0
 91
        4
 64
     7
 65
   257
 75
     1
175
     1
 42
1.0
 92
        8
 66
     7
 43
1.0
 76
     1
 77
     6
 78
     2
 67
     7
 79
     5
170
     0
171
     0
290
     0
174
     0
 93
        1
 44
0.0
173
     0
291
     1
 45
0.0
1001
ACAD
1000
AcDbSavedByObjectVersion
1070
     0
  0
VISUALSTYLE
  5
36
102
{ACAD_REACTORS
330
2A
102
}
330
2A
100
AcDbVisualStyle
  2
Brighten
 70
    12
 71
     2
 72
     2
 73
     0
 90
        0
 40
-0.6
 41
-30.0
 62
     5
 63
     7
421
 16777215
 74
     1
 91
        4
 64
     7
 65
   257
 75
     1
175
     1
 42
1.0
 92
        8
 66
     7
 43
1.0
 76
     1
 77
     6
 78
     2
 67
     7
 79
     5
170
     0
171
     0
290
     0
174
     0
 93
        1
 44
50.0
173
     0
291
     1
 45
0.0
1001
ACAD
1000
AcDbSavedByObjectVersion
1070
     0
  0
VISUALSTYLE
  5
3A
102
{ACAD_REACTORS
330
2A
102
}
330
2A
100
AcDbVisualStyle
  2
ColorChange
 70
    16
 71
     2
 72
     2
 73
     3
 90
        0
 40
-0.6
 41
-30.0
 62
     5
 63
     8
421
  8421504
 74
     1
 91
        4
 64
     7
 65
   257
 75
     1
175
     1
 42
1.0
 92
        8
 66
     8
424
  8421504
 43
1.0
 76
     1
 77
     6
 78
     2
 67
     7
 79
     5
170
     0
171
     0
290
     0
174
     0
 93
        1
 44
0.0
173
     0
291
     1
 45
0.0
1001
ACAD
1000
AcDbSavedByObjectVersion
1070
     0
  0
VISUALSTYLE
  5
34
102
{ACAD_REACTORS
330
2A
102
}
330
2A
100
AcDbVisualStyle
  2
Conceptual
 70
     9
 71
     3
 72
     2
 73
     0
 90
        0
 40
-0.6
 41
-30.0
 62
     5
 63
     7
421
 16777215
 74
     2
 91
        2
 64
     7
 65
   257
 75
     1
175
     1
 42
40.0
 92
        8
 66
     7
 43
1.0
 76
     1
 77
     6
 78
     2
 67
     7
 79
     3
170
     0
171
     0
290
     0
174
     0
 93
        1
 44
0.0
173
     0
291
     0
 45
0.0
1001
ACAD
1000
AcDbSavedByObjectVersion
1070
     0
  0
VISUALSTYLE
  5
35
102
{ACAD_REACTORS
330
2A
102
}
330
2A
100
AcDbVisualStyle
  2
Dim
 70
    11
 71
     2
 72
     2
 73
     0
 90
        0
 40
-0.6
 41
-30.0
 62
     5
 63
     7
421
 16777215
 74
     1
 91
        4
 64
     7
 65
   257
 75
     1
175
     1
 42
1.0
 92
        8
 66
     7
 43
1.0
 76
     1
 77
     6
 78
     2
 67
     7
 79
     5
170
     0
171
     0
290
     0
174
     0
 93
        1
 44
-50.0
173
     0
291
     1
 45
0.0
1001
ACAD
1000
AcDbSavedByObjectVersion
1070
     0
  0
VISUALSTYLE
  5
39
102
{ACAD_REACTORS
330
2A
102
}
330
2A
100
AcDbVisualStyle
  2
Facepattern
 70
    15
 71
     2
 72
     2
 73
     0
 90
        0
 40
-0.6
 41
-30.0
 62
     5
 63
     7
421
 16777215
 74
     1
 91
        4
 64
     7
 65
   257
 75
     1
175
     1
 42
1.0
 92
        8
 66
     7
 43
1.0
 76
     1
 77
     6
 78
     2
 67
     7
 79
     5
170
     0
171
     0
290
     0
174
     0
 93
        1
 44
0.0
173
     0
291
     1
 45
0.0
1001
ACAD
1000
AcDbSavedByObjectVersion
1070
     0
  0
VISUALSTYLE
  5
2B
102
{ACAD_REACTORS
330
2A
102
}
330
2A
100
AcDbVisualStyle
  2
Flat
 70
     0
 71
     2
 72
     1
 73
     1
 90
        2
 40
-0.6
 41
30.0
 62
     5
 63
     7
421
 16777215
 74
     0
 91
        4
 64
     7
 65
   257
 75
     1
175
     1
 42
1.0
 92
        8
 66
     7
 43
1.0
 76
     1
 77
     6
 78
     2
 67
     7
 79
     5
170
     0
171
     0
290
     0
174
     0
 93
       13
 44
0.0
173
     0
291
     1
 45
0.0
1001
ACAD
1000
AcDbSavedByObjectVersion
1070
     0
  0
VISUALSTYLE
  5
2C
102
{ACAD_REACTORS
330
2A
102
}
330
2A
100
AcDbVisualStyle
  2
FlatWithEdges
 70
     1
 71
     2
 72
     1
 73
     1
 90
        2
 40
-0.6
 41
30.0
 62
     5
 63
     7
421
 16777215
 74
     1
 91
        4
 64
     7
 65
   257
 75
     1
175
     1
 42
1.0
 92
        0
 66
   257
 43
1.0
 76
     1
 77
     6
 78
     2
 67
     7
 79
     5
170
     0
171
     0
290
     0
174
     0
 93
       13
 44
0.0
173
     0
291
     1
 45
0.0
1001
ACAD
1000
AcDbSavedByObjectVersion
1070
     0
  0
VISUALSTYLE
  5
2D
102
{ACAD_REACTORS
330
2A
102
}
330
2A
100
AcDbVisualStyle
  2
Gouraud
 70
     2
 71
     2
 72
     2
 73
     1
 90
        2
 40
-0.6
 41
30.0
 62
     5
 63
     7
421
 16777215
 74
     0
 91
        4
 64
     7
 65
   257
 75
     1
175
     1
 42
1.0
 92
        0
 66
     7
 43
1.0
 76
     1
 77
     6
 78
     2
 67
     7
 79
     5
170
     0
171
     0
290
     0
174
     0
 93
       13
 44
0.0
173
     0
291
     1
 45
0.0
1001
ACAD
1000
AcDbSavedByObjectVersion
1070
     0
  0
VISUALSTYLE
  5
2E
102
{ACAD_REACTORS
330
2A
102
}
330
2A
100
AcDbVisualStyle
  2
GouraudWithEdges
 70
     3
 71
     2
 72
     2
 73
     1
 90
        2
 40
-0.6
 41
30.0
 62
     5
 63
     7
421
 16777215
 74
     1
 91
        4
 64
     7
 65
   257
 75
     1
175
     1
 42
1.0
 92
        0
 66
   257
 43
1.0
 76
     1
 77
     6
 78
     2
 67
     7
 79
     5
170
     0
171
     0
290
     0
174
     0
 93
       13
 44
0.0
173
     0
291
     1
 45
0.0
1001
ACAD
1000
AcDbSavedByObjectVersion
1070
     0
  0
VISUALSTYLE
  5
38
102
{ACAD_REACTORS
330
2A
102
}
330
2A
100
AcDbVisualStyle
  2
Linepattern
 70
    14
 71
     2
 72
     2
 73
     0
 90
        0
 40
-0.6
 41
-30.0
 62
     5
 63
     7
421
 16777215
 74
     1
 91
        4
 64
     7
 65
   257
 75
     7
175
     7
 42
1.0
 92
        8
 66
     7
 43
1.0
 76
     1
 77
     6
 78
     2
 67
     7
 79
     5
170
     0
171
     0
290
     0
174
     0
 93
        1
 44
0.0
173
     0
291
     1
 45
0.0
1001
ACAD
1000
AcDbSavedByObjectVersion
1070
     0
  0
VISUALSTYLE
  5
33
102
{ACAD_REACTORS
330
2A
102
}
330
2A
100
AcDbVisualStyle
  2
Realistic
 70
     8
 71
     2
 72
     2
 73
     0
 90
        0
 40
-0.6
 41
-30.0
 62
     5
 63
     7
421
 16777215
 74
     1
 91
        0
 64
     7
 65
   257
 75
     1
175
     1
 42
1.0
 92
        8
 66
     8
424
  7895160
 43
1.0
 76
     1
 77
     6
 78
     2
 67
     7
 79
     5
170
     0
171
     0
290
     0
174
     0
 93
       13
 44
0.0
173
     0
291
     0
 45
0.0
1001
ACAD
1000
AcDbSavedByObjectVersion
1070
     0
  0
VISUALSTYLE
  5
37
102
{ACAD_REACTORS
330
2A
102
}
330
2A
100
AcDbVisualStyle
  2
Thicken
 70
    13
 71
     2
 72
     2
 73
     0
 90
        0
 40
-0.6
 41
-30.0
 62
     5
 63
     7
421
 16777215
 74
     1
 91
        4
 64
     7
 65
   257
 75
     1
175
     1
 42
1.0
 92
       12
 66
     7
 43
1.0
 76
     1
 77
     6
 78
     2
 67
     7
 79
     5
170
     0
171
     0
290
     0
174
     0
 93
        1
 44
0.0
173
     0
291
     1
 45
0.0
1001
ACAD
1000
AcDbSavedByObjectVersion
1070
     0
  0
ENDSEC
  0
EOF
