<?xml version="1.0" encoding="utf-8"?>
<!-- Generator: Adobe Illustrator 16.0.3, SVG Export Plug-In . SVG Version: 6.00 Build 0)  -->
<!DOCTYPE svg PUBLIC "-//W3C//DTD SVG 1.1//EN" "http://www.w3.org/Graphics/SVG/1.1/DTD/svg11.dtd">
<svg version="1.1" xmlns="http://www.w3.org/2000/svg" xmlns:xlink="http://www.w3.org/1999/xlink" x="0px" y="0px"
	 width="2551.182px" height="1502.362px" viewBox="0 0 2551.182 1502.362" enable-background="new 0 0 2551.182 1502.362"
	 xml:space="preserve">
<g id="Sign">
	<path fill="#00AEEF" d="M0,0v1502.362h2551.182V0H0z M99.212,1413.779c-5.871,0-10.63-4.759-10.63-10.63s4.759-10.63,10.63-10.63
		s10.63,4.759,10.63,10.63S105.083,1413.779,99.212,1413.779z M99.213,520.866c-5.871,0-10.631-4.759-10.631-10.63
		s4.76-10.63,10.631-10.63c5.87,0,10.629,4.759,10.629,10.63S105.083,520.866,99.213,520.866z M433.782,1277.59
		c-41.58-3.339-90.998-25.913-96.395-71.452h74.848c1.836,6.604,6.605,11.374,12.474,14.309c2.831,1.42,5.932,2.447,9.073,3.173
		V1277.59z M433.782,1047.681c-19.603,4.909-30.729,21.665-30.729,41.061c0,19.991,11.126,36.083,30.729,40.77v57.983
		c-2.229,0.177-4.5,0.301-6.869,0.301c-55.033,0-92.828-41.829-92.828-96.13c0-55.028,38.894-101.988,96.493-101.988
		c1.078,0,2.136,0.093,3.204,0.14V1047.681z M553.486,1165.782c0,74.531-34.507,107.546-95.311,111.704v-54.291
		c23.438-5.734,28.535-26.462,28.535-52.281v-8.803c-9.057,9.063-18.254,15.626-28.535,19.856v-52.457
		c19.602-4.687,30.728-20.779,30.728-40.77c0-19.39-11.126-36.151-30.728-41.061v-53.349c10.846,4.054,20.421,10.929,27.804,21.391
		h0.73v-19.81h66.776V1165.782z M726.864,1057.552c-9.166-5.138-17.974-6.237-28.249-6.237c-37.054,0-46.22,24.58-46.22,56.868
		v75.941h-66.776V995.913h66.776v30.822h0.73c12.842-23.118,34.85-33.388,60.902-33.388h12.836V1057.552z M837.309,1049.147
		c-19.607,4.91-30.734,21.666-30.734,41.056c0,20.001,11.126,36.094,30.734,40.77v58.843
		c-54.981-4.541-101.174-39.785-101.174-99.613c0-59.849,45.913-95.425,101.174-99.982V1049.147z M861.702,1189.816v-58.843
		c19.597-4.687,30.723-20.769,30.723-40.77c0-19.39-11.126-36.146-30.723-41.056v-58.927
		c55.256,4.558,101.165,40.133,101.165,99.982C962.867,1149.709,916.958,1185.265,861.702,1189.816z M1070.123,1189.941
		c-50.44-2.717-87.97-23.227-87.97-80.66V995.913h66.775v100.532c0,19.772,4.102,34.714,21.195,39.246V1189.941z M1182.475,1109.281
		c0,57.434-37.525,77.943-87.965,80.66v-54.25c17.088-4.531,21.19-19.473,21.19-39.246V995.913h66.775V1109.281z M1408.999,1184.124
		h-66.774v-91.723c0-17.975,2.934-49.528-30.081-49.528c-27.15,0-34.854,20.184-34.854,43.664v97.587h-66.771V995.913h66.771v24.217
		h0.73c15.413-22.75,34.124-30.454,60.17-30.454c50.631,0,70.81,31.92,70.81,78.146V1184.124z M1532.047,1049.147
		c-19.598,4.915-30.723,21.671-30.723,41.056c0,20.001,11.125,36.083,30.723,40.77v59.133c-1.566,0.094-3.121,0.25-4.676,0.25
		c-55.764,0-95.021-46.588-95.021-100.526c0-53.924,38.521-100.153,94.284-100.153c1.793,0,3.607,0.088,5.412,0.212V1049.147z
		 M1651.746,1184.124h-66.776v-20.914h-0.725c-6.492,10.338-16.477,17.514-27.811,21.879v-54.116
		c19.607-4.676,30.734-20.769,30.734-40.77c0-19.39-11.127-36.151-30.734-41.061v-54.157c11.023,4.044,21.061,10.415,28.535,19.271
		V879.611h66.776V1184.124z M1769.258,1034.724c-13.325,3.645-23.538,13.091-26.618,27.959h26.618v38.531h-27.718
		c0,21.992,9.52,35.668,27.718,40.117v48.215c-54.935-5.122-94.492-39.568-94.492-99.344c0-59.331,38.499-96.146,94.492-99.987
		V1034.724z M1843.903,1174.585c-14.601,9.011-32.103,13.987-50.259,15.325v-47.966c9.115-1.971,16.207-6.916,21.641-16.155h64.204
		C1874.356,1147.802,1861.147,1163.946,1843.903,1174.585z M1882.06,1101.215h-88.415v-38.531h26.41
		c-2.582-14.06-13.283-24.201-26.41-27.986v-44.187c56.21,5.708,88.415,44.53,88.415,103.726V1101.215z M2006.032,1049.147
		c-19.598,4.915-30.724,21.671-30.724,41.056c0,20.001,11.126,36.083,30.724,40.77v59.133c-1.566,0.094-3.121,0.25-4.678,0.25
		c-55.765,0-95.021-46.588-95.021-100.526c0-53.924,38.521-100.153,94.284-100.153c1.805,0,3.609,0.088,5.414,0.212V1049.147z
		 M2125.73,1184.124h-66.766v-20.914h-0.736c-6.49,10.338-16.478,17.514-27.81,21.889v-54.125
		c19.618-4.676,30.733-20.769,30.733-40.77c0-19.39-11.115-36.151-30.733-41.061v-54.157c11.021,4.044,21.06,10.415,28.546,19.271
		V879.611h66.766V1184.124z M2201.568,1195.198c-24.294,0-43.726-19.805-43.726-43.715c0-24.294,19.432-43.725,43.726-43.725
		c24.283,0,43.715,19.431,43.715,43.725C2245.283,1175.394,2225.852,1195.198,2201.568,1195.198z M2451.969,499.606
		c5.87,0,10.629,4.759,10.629,10.63s-4.759,10.63-10.629,10.63c-5.871,0-10.631-4.759-10.631-10.63
		S2446.098,499.606,2451.969,499.606z M2451.97,1413.779c-5.871,0-10.631-4.759-10.631-10.63s4.76-10.63,10.631-10.63
		c5.87,0,10.629,4.759,10.629,10.63S2457.84,1413.779,2451.97,1413.779z"/>
</g>
<g id="Guides">
</g>
</svg>
